<svg width="32" height="32" viewBox="0 0 32 32" fill="none" xmlns="http://www.w3.org/2000/svg">
<g clip-path="url(#clip0_13_8)">
<path d="M31.453 4.62499C31.1131 3.69161 30.5727 2.84409 29.8698 2.14211C29.167 1.44013 28.3188 0.900768 27.385 0.561993C25.64 -0.00100714 24.052 -0.00100708 20.828 -0.00100708H11.146C7.948 -0.00100708 6.333 -0.00100714 4.615 0.529993C3.67947 0.871433 2.83029 1.41405 2.12739 2.11954C1.42448 2.82504 0.884995 3.67621 0.547 4.61299C0 6.34699 0 7.94599 0 11.144V20.837C0 24.051 0 25.639 0.531 27.373C0.870923 28.3064 1.41133 29.1539 2.11417 29.8559C2.81701 30.5579 3.6652 31.0972 4.599 31.436C6.333 31.983 7.932 31.983 11.135 31.983H20.838C24.052 31.983 25.651 31.983 27.374 31.452C28.3108 31.1122 29.1616 30.5709 29.8662 29.8662C30.5709 29.1616 31.1122 28.3108 31.452 27.374C31.999 25.64 31.999 24.041 31.999 20.838V11.171C31.999 7.95699 31.999 6.35799 31.452 4.62399L31.453 4.62499ZM23.229 10.802L21.984 12.042C21.8625 12.1526 21.7047 12.2147 21.5404 12.2166C21.3761 12.2184 21.2169 12.1598 21.093 12.052C19.8903 11.0419 18.3716 10.4853 16.801 10.479C15.504 10.479 14.212 10.906 14.212 12.094C14.212 13.292 15.597 13.693 17.196 14.292C19.998 15.23 22.316 16.401 22.316 19.146C22.316 22.136 19.998 24.188 16.212 24.412L15.863 26.016C15.8326 26.1619 15.7529 26.2929 15.6372 26.3869C15.5216 26.4809 15.377 26.5321 15.228 26.532H12.837L12.717 26.522C12.5468 26.483 12.3986 26.3789 12.3042 26.232C12.2099 26.085 12.1767 25.907 12.212 25.736L12.587 24.043C11.1489 23.682 9.82617 22.9615 8.743 21.949V21.933C8.62295 21.8128 8.55551 21.6499 8.55551 21.48C8.55551 21.3101 8.62295 21.1472 8.743 21.027L10.076 19.735C10.198 19.6223 10.3579 19.5597 10.524 19.5597C10.6901 19.5597 10.85 19.6223 10.972 19.735C12.1928 20.8873 13.8145 21.5186 15.493 21.495C17.227 21.495 18.384 20.761 18.384 19.599C18.384 18.437 17.212 18.135 14.999 17.307C12.65 16.468 10.426 15.281 10.426 12.505C10.426 9.28099 13.103 7.70799 16.28 7.56199L16.613 5.92099C16.6437 5.77463 16.7246 5.64359 16.8416 5.55048C16.9586 5.45737 17.1045 5.40804 17.254 5.41099H19.624L19.759 5.42699C19.8415 5.44423 19.9198 5.47759 19.9893 5.52516C20.0589 5.57272 20.1184 5.63356 20.1644 5.70417C20.2104 5.77479 20.242 5.85379 20.2573 5.93664C20.2727 6.0195 20.2716 6.10458 20.254 6.18699L19.895 8.01499C21.1039 8.41429 22.2248 9.04199 23.197 9.86399L23.228 9.89499C23.478 10.161 23.478 10.562 23.228 10.801L23.229 10.802Z" fill="white"/>
</g>
<defs>
<clipPath id="clip0_13_8">
<rect width="32" height="32" fill="white"/>
</clipPath>
</defs>
</svg>
