<svg width="32" height="32" viewBox="0 0 32 32" fill="none" xmlns="http://www.w3.org/2000/svg">
<g clip-path="url(#clip0_161_5)">
<path fill-rule="evenodd" clip-rule="evenodd" d="M8 0C3.58172 0 0 3.58172 0 8V24C0 28.4183 3.58172 32 8 32H24C28.4183 32 32 28.4183 32 24V8C32 3.58172 28.4183 0 24 0H8ZM21.9145 21.3499L21.2626 21.9885C21.3894 24.99 21.2792 25.0336 20.9634 25.1571L18.9649 25.9536L18.9648 25.9536C18.6584 26.0757 18.5512 26.1185 16.4542 23.9114L15.54 23.9C13.5126 26.0755 13.4025 26.03 13.0877 25.9002L13.0873 25.9L10.9192 24.9657L10.8352 24.7764C10.7016 23.806 10.6684 22.8248 10.736 21.8478L10.084 21.1799C7.09019 21.2571 7.04527 21.1478 6.91923 20.8399L6.09489 18.8278L6.09445 18.8267C5.97019 18.5246 5.9258 18.4167 8.09634 16.3549V15.4263C6.21098 13.6556 6.10385 13.3969 6.06822 13.3108L6.06809 13.3105L6 13.1448L6.06519 12.9541L6.89533 10.9641C7.02644 10.6598 7.0728 10.5541 10.0876 10.6512L10.7345 10.0155C10.6128 7.01543 10.7237 6.97114 11.0373 6.84614L13.0402 6.04756L13.0403 6.0475C13.3539 5.92254 13.4534 5.88288 15.5473 8.08687L16.4614 8.10045C18.4947 5.91697 18.6069 5.96752 18.9239 6.11025L18.9243 6.11042L21.0786 7.039L21.1626 7.22686C21.2978 8.19852 21.3321 9.18125 21.2648 10.1598L21.9167 10.8241C24.9099 10.7434 24.9583 10.8611 25.0821 11.1622L25.0822 11.1626L25.9073 13.1727L25.9077 13.1736C26.0312 13.475 26.0753 13.5826 23.9044 15.6448V16.5763C25.7878 18.347 25.8971 18.607 25.9326 18.6942L26 18.8592L25.9384 19.0478L25.1097 21.0371C24.9772 21.3428 24.9308 21.4471 21.9145 21.3499ZM12.5233 15.2861C12.3681 15.9665 12.4202 16.677 12.6729 17.3284C13.0266 18.2092 13.7196 18.9159 14.6004 19.294C15.4812 19.672 16.478 19.6906 17.3727 19.3456C18.0284 19.0841 18.5912 18.6375 18.9905 18.0618C19.3897 17.4861 19.6077 16.807 19.617 16.1096C19.6263 15.4122 19.4265 14.7276 19.0427 14.1417C18.6589 13.5559 18.1081 13.0949 17.4596 12.8165C16.8111 12.5382 16.0936 12.4549 15.3973 12.5771C14.7009 12.6993 14.0567 13.0216 13.5454 13.5036C13.0341 13.9855 12.6786 14.6056 12.5233 15.2861Z" fill="#1D1E20"/>
</g>
<defs>
<clipPath id="clip0_161_5">
<rect width="32" height="32" fill="white"/>
</clipPath>
</defs>
</svg>
