<svg width="52" height="52" viewBox="0 0 52 52" fill="none" xmlns="http://www.w3.org/2000/svg">
<rect width="52" height="52" rx="10" fill="#A52424"/>
<path d="M12.8116 42.9565C11.7753 42.9565 10.8879 42.5879 10.1494 41.8506C9.4121 41.112 9.04346 40.2246 9.04346 39.1884V31.6522H12.8116V39.1884H39.1884V12.8116H12.8116V20.3478H9.04346V12.8116C9.04346 11.7754 9.4121 10.888 10.1494 10.1494C10.8879 9.41213 11.7753 9.04349 12.8116 9.04349H39.1884C40.2246 9.04349 41.112 9.41213 41.8506 10.1494C42.5879 10.888 42.9565 11.7754 42.9565 12.8116V39.1884C42.9565 40.2246 42.5879 41.112 41.8506 41.8506C41.112 42.5879 40.2246 42.9565 39.1884 42.9565H12.8116ZM23.1739 35.4203L20.5362 32.6884L25.3406 27.8841H9.04346V24.116H25.3406L20.5362 19.3116L23.1739 16.5797L32.5942 26L23.1739 35.4203Z" fill="#1D1E20"/>
</svg>
