<svg width="54" height="54" viewBox="0 0 54 54" fill="none" xmlns="http://www.w3.org/2000/svg">
<g clip-path="url(#clip0_123_2)">
<path d="M43.6282 0.0495605H10.3718C4.67099 0.0495605 0.0495605 4.67099 0.0495605 10.3718V43.6282C0.0495605 49.329 4.67099 53.9504 10.3718 53.9504H43.6282C49.329 53.9504 53.9504 49.329 53.9504 43.6282V10.3718C53.9504 4.67099 49.329 0.0495605 43.6282 0.0495605Z" fill="#1D1E20"/>
<path d="M39.7923 29.3015C35.3042 27.0198 30.3482 23.8639 30.1163 23.7271C21.2887 18.4797 22.7517 19.1181 13.1788 10.4452L14.4079 26.8137C25.0077 27.1011 33.1929 37.009 40.4207 44.6927C40.4207 44.6987 40.0103 29.4046 39.7923 29.3015Z" fill="url(#paint0_linear_123_2)"/>
<path d="M12.6099 9.5293C13.5634 15.3932 13.7795 21.3819 13.6447 27.3172C13.5059 33.4689 12.9868 39.6062 12.0905 45.6938C14.5814 45.0582 16.9705 44.0753 19.1874 42.7738C20.2084 42.1791 21.2174 41.4991 22.0341 40.5278C24.1632 37.9963 24.6469 33.8551 24.2147 30.1123C23.6775 25.5152 21.9053 21.1104 19.2588 17.7958C17.3676 15.417 17.7938 15.6013 15.9581 13.161C15.8075 12.9628 14.5705 11.7139 14.2612 11.3471C14.0848 11.1489 13.1888 10.233 13.4068 10.3896" fill="url(#paint1_linear_123_2)"/>
<path d="M40.8664 8.26805C41.6988 7.95598 42.174 7.1703 41.9276 6.51316C41.6813 5.85603 40.8067 5.57629 39.9743 5.88836C39.1419 6.20042 38.6667 6.98611 38.9131 7.64325C39.1594 8.30038 40.034 8.58011 40.8664 8.26805Z" fill="#E6007E"/>
<path d="M40.506 44.6947C39.713 38.4423 39.6873 32.0828 40.0262 25.7927C40.3791 19.2509 41.5725 8.97423 40.9639 7.05331C38.5632 4.06586 34.1564 4.18282 32.0551 5.58833C31.0282 6.27423 30.4692 7.75507 29.7793 9.04361C28.1359 12.1064 29.8547 19.1696 30.1758 23.1542C30.5822 28.0487 32.6003 32.0293 34.4597 36.1229C35.782 39.035 35.7582 39.0112 37.5859 41.6637C37.7366 41.8837 39.265 43.4795 39.0727 43.2654C38.932 43.1108 39.8458 44.0822 39.6952 43.9355" fill="url(#paint2_linear_123_2)"/>
<path d="M32.6191 7.4875C33.0394 6.92548 32.803 6.03827 32.091 5.50585C31.3791 4.97344 30.4612 4.99744 30.0409 5.55946C29.6206 6.12148 29.8571 7.00869 30.569 7.54111C31.281 8.07352 32.1988 8.04952 32.6191 7.4875Z" fill="#E6007E"/>
<path d="M30.2432 22.5476C30.2639 22.7407 30.2983 22.9322 30.3462 23.1205C30.4018 23.3425 30.4771 23.5625 30.5445 23.7806L30.7566 24.3991C30.9053 24.8333 31.054 25.2694 31.2225 25.7015C31.474 26.3678 31.7838 27.0106 32.1482 27.6225C32.3013 27.8998 32.5082 28.1438 32.7568 28.3401C33.0556 28.5592 33.4249 28.6601 33.7936 28.6236C34.0083 28.601 34.2114 28.5148 34.3767 28.376C34.542 28.2372 34.662 28.0521 34.7214 27.8445C34.7754 27.4692 34.7058 27.0865 34.5231 26.7542C33.9145 25.3665 32.846 23.9987 33.0284 22.5377" fill="url(#paint3_linear_123_2)"/>
<path d="M36.5233 22.3394C36.3647 22.6784 36.563 23.0432 36.6998 23.3881C37.2053 24.6509 36.8841 26.0147 36.3271 27.2676C36.2005 27.5034 36.1197 27.761 36.0892 28.0269C36.085 28.1694 36.1218 28.3102 36.1953 28.4325C36.2687 28.5548 36.3757 28.6534 36.5035 28.7167C36.8273 28.8546 37.1904 28.8694 37.5244 28.7584C37.8304 28.6563 38.1138 28.4961 38.359 28.2866C38.6953 28.0421 38.9768 27.7302 39.1857 27.3707C39.2919 27.1472 39.3705 26.9115 39.4196 26.6689L40.0143 24.2643" fill="url(#paint4_linear_123_2)"/>
<path d="M36.1071 8.88304C35.8388 8.7473 35.5447 8.67004 35.2443 8.65637C34.944 8.6427 34.6441 8.69293 34.3646 8.80375C33.8069 9.02894 33.2878 9.33997 32.8263 9.72555C32.5337 9.91131 32.2941 10.1694 32.1304 10.4749C32.0659 10.6252 32.0382 10.7888 32.0496 10.9521C32.0611 11.1153 32.1114 11.2734 32.1964 11.4132C32.2813 11.5531 32.3985 11.6706 32.538 11.756C32.6776 11.8414 32.8355 11.8922 32.9987 11.9042C33.3556 11.93 33.6965 11.7714 34.0395 11.6703C34.5675 11.5156 35.1262 11.4979 35.663 11.6187C36.0793 11.7139 36.4738 11.8903 36.8921 11.9756C37.0983 12.0324 37.3141 12.0452 37.5255 12.0131C37.7369 11.981 37.9392 11.9047 38.1192 11.7892C38.2979 11.648 38.4349 11.461 38.5157 11.248C38.5718 11.1238 38.5951 10.9873 38.5831 10.8515C38.5256 10.4729 38.0915 10.3004 37.7307 10.1716C37.0838 9.93184 36.481 9.58689 35.9465 9.15066" fill="#E486B6"/>
<path d="M34.4062 10.011C34.43 10.0566 34.5925 10.1498 34.6163 10.1795C34.7273 10.3084 34.7254 10.2429 34.8344 10.3777C34.8703 10.4281 34.9179 10.4689 34.9731 10.4967C35.058 10.5198 35.1484 10.5106 35.2269 10.4709C35.4906 10.3673 35.7252 10.2013 35.9108 9.98721C35.9374 9.96262 35.9548 9.92979 35.9604 9.89403C35.9604 9.8187 35.8712 9.77905 35.7978 9.7632C35.3098 9.66214 34.8044 9.68394 34.3269 9.82663C34.3031 9.82663 34.2615 9.82663 34.2615 9.86231C34.2615 9.96738 34.3428 9.96341 34.3428 9.96341" fill="#A3195B"/>
<path d="M29.7872 12.0231C29.7099 13.165 29.9756 14.3683 30.4632 15.0779L30.8894 14.8222C31.3231 16.5145 31.9386 18.1548 32.7251 19.7147C32.7351 19.3157 32.8845 18.9328 33.1474 18.6324C33.2703 19.2053 33.4447 19.8634 33.7718 19.9605C33.9383 20.0081 34.1088 19.8912 34.2793 19.9209C34.4498 19.9506 34.6262 20.2698 34.5469 20.5493C35.2487 20.0484 35.9584 19.5859 36.676 19.1616V20.1846C37.3024 19.7881 37.9368 19.3916 38.478 18.6898C39.1136 17.8148 39.4758 16.7711 39.5187 15.6905C39.5663 15.8253 39.6773 15.861 39.7467 15.7638" fill="url(#paint5_linear_123_2)"/>
<path d="M33.3417 8.94051C33.6274 8.94051 33.8591 8.58461 33.8591 8.14558C33.8591 7.70655 33.6274 7.35065 33.3417 7.35065C33.0559 7.35065 32.8243 7.70655 32.8243 8.14558C32.8243 8.58461 33.0559 8.94051 33.3417 8.94051Z" fill="#5A1848"/>
<path d="M37.0626 9.07134C37.3483 9.07134 37.58 8.71544 37.58 8.27641C37.58 7.83738 37.3483 7.48148 37.0626 7.48148C36.7768 7.48148 36.5452 7.83738 36.5452 8.27641C36.5452 8.71544 36.7768 9.07134 37.0626 9.07134Z" fill="#5A1848"/>
<path d="M13.8628 23.7647C13.7855 25.4339 14.0511 27.1903 14.5368 28.2271L14.963 27.8544C15.3862 30.2817 16 32.6719 16.7987 35.0028C16.8344 34.3308 16.9969 33.7183 17.2229 33.4169C17.3439 34.2555 17.5183 35.2169 17.8454 35.3577C18.0139 35.4291 18.1844 35.2566 18.3529 35.3022C18.5214 35.3478 18.7018 35.8117 18.6225 36.22C19.2971 35.5113 20.007 34.8371 20.7496 34.2V35.6967C21.374 35.1258 22.0104 34.5429 22.5496 33.5161C23.0888 32.4892 23.5309 30.9231 23.5923 29.133C23.6399 29.3313 23.7509 29.3828 23.8183 29.2401" fill="url(#paint6_linear_123_2)"/>
</g>
<defs>
<linearGradient id="paint0_linear_123_2" x1="14.0265" y1="28.1883" x2="39.7501" y2="26.9572" gradientUnits="userSpaceOnUse">
<stop offset="0.31" stop-color="#9E1E5E"/>
<stop offset="0.71" stop-color="#E93F84"/>
</linearGradient>
<linearGradient id="paint1_linear_123_2" x1="18.3861" y1="35.3218" x2="18.4366" y2="21.519" gradientUnits="userSpaceOnUse">
<stop stop-color="#E21035"/>
<stop offset="1" stop-color="#E6007E"/>
</linearGradient>
<linearGradient id="paint2_linear_123_2" x1="34.6533" y1="32.2736" x2="37.095" y2="10.7425" gradientUnits="userSpaceOnUse">
<stop stop-color="#E21035"/>
<stop offset="1" stop-color="#E6007E"/>
</linearGradient>
<linearGradient id="paint3_linear_123_2" x1="32.5011" y1="22.5377" x2="32.5011" y2="28.6335" gradientUnits="userSpaceOnUse">
<stop stop-color="#E788B7" stop-opacity="0"/>
<stop offset="0.15" stop-color="#E77DB1" stop-opacity="0.16"/>
<stop offset="0.57" stop-color="#E55D9F" stop-opacity="0.61"/>
<stop offset="0.86" stop-color="#E44A94" stop-opacity="0.89"/>
<stop offset="1" stop-color="#E44290"/>
</linearGradient>
<linearGradient id="paint4_linear_123_2" x1="38.0478" y1="24.409" x2="38.0478" y2="28.3282" gradientUnits="userSpaceOnUse">
<stop stop-color="#E788B7" stop-opacity="0"/>
<stop offset="0.15" stop-color="#E77DB1" stop-opacity="0.16"/>
<stop offset="0.57" stop-color="#E55D9F" stop-opacity="0.61"/>
<stop offset="0.86" stop-color="#E44A94" stop-opacity="0.89"/>
<stop offset="1" stop-color="#E44290"/>
</linearGradient>
<linearGradient id="paint5_linear_123_2" x1="34.5568" y1="14.7132" x2="32.846" y2="21.4453" gradientUnits="userSpaceOnUse">
<stop stop-color="#E788B7" stop-opacity="0"/>
<stop offset="0.15" stop-color="#E77DB1" stop-opacity="0.16"/>
<stop offset="0.57" stop-color="#E55D9F" stop-opacity="0.61"/>
<stop offset="0.86" stop-color="#E44A94" stop-opacity="0.89"/>
<stop offset="1" stop-color="#E44290"/>
</linearGradient>
<linearGradient id="paint6_linear_123_2" x1="18.6641" y1="27.2557" x2="16.0335" y2="37.6037" gradientUnits="userSpaceOnUse">
<stop stop-color="#E788B7" stop-opacity="0"/>
<stop offset="0.15" stop-color="#E77DB1" stop-opacity="0.16"/>
<stop offset="0.57" stop-color="#E55D9F" stop-opacity="0.61"/>
<stop offset="0.86" stop-color="#E44A94" stop-opacity="0.89"/>
<stop offset="1" stop-color="#E44290"/>
</linearGradient>
<clipPath id="clip0_123_2">
<rect width="54" height="54" fill="white"/>
</clipPath>
</defs>
</svg>
