<svg xmlns="http://www.w3.org/2000/svg" xmlns:xlink="http://www.w3.org/1999/xlink" viewBox="0 0 272.4 272.4"><defs><style>.cls-1{fill:#fff;stroke:#fff;stroke-miterlimit:10;stroke-width:0.5px;}.cls-2{fill:url(#Degradado_sin_nombre_8);}.cls-3{fill:url(#Degradado_sin_nombre_4);}.cls-4{fill:#e6007e;}.cls-5{fill:url(#Degradado_sin_nombre_3);}.cls-6{fill:url(#Degradado_sin_nombre_13);}.cls-7{fill:url(#Degradado_sin_nombre_13-2);}.cls-8{fill:#e486b6;}.cls-9{fill:#a3195b;}.cls-10{fill:url(#Degradado_sin_nombre_12);}.cls-11{fill:#5a1848;}.cls-12{fill:url(#Degradado_sin_nombre_12-2);}</style><linearGradient id="Degradado_sin_nombre_8" x1="233.38" y1="218.03" x2="363.29" y2="218.03" gradientTransform="translate(-11.34 40.24) rotate(-2.74)" gradientUnits="userSpaceOnUse"><stop offset="0.31" stop-color="#9e1e5e"/><stop offset="0.71" stop-color="#e93f84"/></linearGradient><linearGradient id="Degradado_sin_nombre_4" x1="243.03" y1="254.19" x2="246.05" y2="184.68" gradientTransform="matrix(0.94, -0.04, 0.05, 1, 13.03, 38.38)" gradientUnits="userSpaceOnUse"><stop offset="0" stop-color="#e21035"/><stop offset="1" stop-color="#e6007e"/></linearGradient><linearGradient id="Degradado_sin_nombre_3" x1="-12.96" y1="191.41" x2="-12.96" y2="104.57" gradientTransform="matrix(-0.97, -0.11, -0.06, 1.26, 335.16, 24.87)" xlink:href="#Degradado_sin_nombre_4"/><linearGradient id="Degradado_sin_nombre_13" x1="325.39" y1="218.36" x2="325.39" y2="249.11" gradientUnits="userSpaceOnUse"><stop offset="0" stop-color="#e788b7" stop-opacity="0"/><stop offset="0.15" stop-color="#e77db1" stop-opacity="0.16"/><stop offset="0.57" stop-color="#e55d9f" stop-opacity="0.61"/><stop offset="0.86" stop-color="#e44a94" stop-opacity="0.89"/><stop offset="1" stop-color="#e44290"/></linearGradient><linearGradient id="Degradado_sin_nombre_13-2" x1="353.37" y1="227.8" x2="353.37" y2="247.57" xlink:href="#Degradado_sin_nombre_13"/><linearGradient id="Degradado_sin_nombre_12" x1="335.76" y1="178.89" x2="327.13" y2="212.85" xlink:href="#Degradado_sin_nombre_13"/><linearGradient id="Degradado_sin_nombre_12-2" x1="255.59" y1="242.16" x2="242.32" y2="294.36" xlink:href="#Degradado_sin_nombre_13"/></defs><g id="Capa_1" data-name="Capa 1"><rect class="cls-1" x="0.25" y="0.25" width="271.9" height="271.9" rx="52.07"/><path class="cls-2" d="M362.17,252.48c-22.64-11.51-47.64-27.43-48.81-28.12-44.53-26.47-37.15-23.25-85.44-67l6.2,82.57c53.47,1.45,94.76,51.43,131.22,90.19C365.34,330.15,363.27,253,362.17,252.48Z" transform="translate(-161.44 -104.67)"/><path class="cls-3" d="M225.05,152.74c4.81,29.58,5.9,59.79,5.22,89.73a753,753,0,0,1-7.84,92.7,138.21,138.21,0,0,0,35.8-14.73c5.15-3,10.24-6.43,14.36-11.33,10.74-12.77,13.18-33.66,11-52.54-2.71-23.19-11.65-45.41-25-62.13-9.54-12-7.39-11.07-16.65-23.38-.76-1-7-7.3-8.56-9.15-.89-1-5.41-5.62-4.31-4.83" transform="translate(-161.44 -104.67)"/><ellipse class="cls-4" cx="365.34" cy="140.35" rx="8.12" ry="6.41" transform="translate(-187.46 32.53) rotate(-20.55)"/><path class="cls-5" d="M365.77,330.13c-4-31.54-4.13-63.62-2.42-95.35,1.78-33,7.8-84.84,4.73-94.53-12.11-15.07-34.34-14.48-44.94-7.39-5.18,3.46-8,10.93-11.48,17.43-8.29,15.45.38,51.08,2,71.18,2.05,24.69,12.23,44.77,21.61,65.42,6.67,14.69,6.55,14.57,15.77,27.95.76,1.11,8.47,9.16,7.5,8.08-.71-.78,3.9,4.12,3.14,3.38" transform="translate(-161.44 -104.67)"/><ellipse class="cls-4" cx="319.48" cy="137.57" rx="6.41" ry="8.12" transform="translate(-143.46 206.37) rotate(-53.21)"/><path class="cls-6" d="M314,218.41a20.62,20.62,0,0,0,.52,2.89c.28,1.12.66,2.23,1,3.33l1.07,3.12c.75,2.19,1.5,4.39,2.35,6.57a61.11,61.11,0,0,0,4.67,9.69,12,12,0,0,0,3.07,3.62,7.58,7.58,0,0,0,5.23,1.43,5.46,5.46,0,0,0,4.68-3.93,8.81,8.81,0,0,0-1-5.5c-3.07-7-8.46-13.9-7.54-21.27" transform="translate(-161.44 -104.67)"/><path class="cls-7" d="M345.68,217.36c-.8,1.71.2,3.55.89,5.29,2.55,6.37.93,13.25-1.88,19.57a10.67,10.67,0,0,0-1.2,3.83,3.76,3.76,0,0,0,2.09,3.48,7.28,7.28,0,0,0,5.15.21,12.64,12.64,0,0,0,4.21-2.38,15.07,15.07,0,0,0,4.17-4.62,15.34,15.34,0,0,0,1.18-3.54l3-12.13" transform="translate(-161.44 -104.67)"/></g><g id="Capa_2" data-name="Capa 2"><path class="cls-8" d="M343.58,149.48a10.72,10.72,0,0,0-8.79-.4,29.1,29.1,0,0,0-7.76,4.65,10.16,10.16,0,0,0-3.51,3.78,5.18,5.18,0,0,0,4.38,7.21c1.8.13,3.52-.67,5.25-1.18a16.36,16.36,0,0,1,8.19-.26c2.1.48,4.09,1.37,6.2,1.8a7.68,7.68,0,0,0,6.19-.94,6.35,6.35,0,0,0,2-2.73,4,4,0,0,0,.34-2c-.29-1.91-2.48-2.78-4.3-3.43a31.6,31.6,0,0,1-9-5.15" transform="translate(-161.44 -104.67)"/><path class="cls-9" d="M335,155.17c.12.23.94.7,1.06.85.56.65.55.32,1.1,1a1.92,1.92,0,0,0,.7.6,1.79,1.79,0,0,0,1.28-.13,8.85,8.85,0,0,0,3.45-2.44.81.81,0,0,0,.25-.47c0-.38-.45-.58-.82-.66a15.17,15.17,0,0,0-7.42.32c-.12,0-.33,0-.33.18,0,.53.41.51.41.51" transform="translate(-161.44 -104.67)"/><path class="cls-10" d="M311.7,165.32c-.39,5.76.95,11.83,3.41,15.41l2.15-1.29a122.21,122.21,0,0,0,9.26,24.68,8.62,8.62,0,0,1,2.13-5.46c.62,2.89,1.5,6.21,3.15,6.7.84.24,1.7-.35,2.56-.2s1.75,1.76,1.35,3.17q5.31-3.79,10.74-7l0,5.16c3.16-2,6.36-4,9.09-7.54a27.61,27.61,0,0,0,5.25-15.13c.24.68.8.86,1.15.37" transform="translate(-161.44 -104.67)"/><ellipse class="cls-11" cx="168.19" cy="41.09" rx="2.61" ry="4.01"/><ellipse class="cls-11" cx="186.96" cy="41.75" rx="2.61" ry="4.01"/><path class="cls-12" d="M231.37,224.55c-.39,8.42.95,17.28,3.4,22.51l2.15-1.88a236.63,236.63,0,0,0,9.26,36.06c.18-3.39,1-6.48,2.14-8,.61,4.23,1.49,9.08,3.14,9.79.85.36,1.71-.51,2.56-.28s1.76,2.57,1.36,4.63a146.78,146.78,0,0,1,10.73-10.19v7.55c3.15-2.88,6.36-5.82,9.08-11s4.95-13.08,5.26-22.11c.24,1,.8,1.26,1.14.54" transform="translate(-161.44 -104.67)"/></g></svg>