<svg width="32" height="32" viewBox="0 0 32 32" fill="none" xmlns="http://www.w3.org/2000/svg">
<g clip-path="url(#clip0_13_38)">
<path fill-rule="evenodd" clip-rule="evenodd" d="M8 0C3.58172 0 0 3.58172 0 8V24C0 28.4183 3.58172 32 8 32H24C28.4183 32 32 28.4183 32 24V8C32 3.58172 28.4183 0 24 0H8ZM8.7167 16.9757C8.64146 17.2419 8.5286 17.4667 8.37812 17.65H10.071C10.2215 17.43 10.3344 17.1961 10.4096 16.9482C10.4848 16.7011 10.5225 16.385 10.5225 16C10.5225 15.45 10.3344 14.7533 9.95816 13.91C9.58196 13.0667 9.39386 12.4342 9.39386 12.0125C9.39386 11.7925 9.41718 11.5633 9.46383 11.325C9.51123 11.0867 9.63839 10.8117 9.8453 10.5H8.1524C7.94549 10.8117 7.81833 11.0867 7.77093 11.325C7.72428 11.5633 7.70096 11.7925 7.70096 12.0125C7.70096 12.4342 7.88906 13.0667 8.26526 13.91C8.64146 14.7533 8.82956 15.45 8.82956 16C8.82956 16.385 8.79194 16.7102 8.7167 16.9757ZM16.0526 16.9757C15.9774 17.2419 15.8645 17.4667 15.714 17.65H17.4069C17.5574 17.43 17.6702 17.1961 17.7455 16.9482C17.8207 16.7011 17.8583 16.385 17.8583 16C17.8583 15.45 17.6702 14.7533 17.294 13.91C16.9179 13.0667 16.7298 12.4342 16.7298 12.0125C16.7298 11.7925 16.7531 11.5633 16.7997 11.325C16.8471 11.0867 16.9743 10.8117 17.1812 10.5H15.4883C15.2814 10.8117 15.1542 11.0867 15.1068 11.325C15.0602 11.5633 15.0369 11.7925 15.0369 12.0125C15.0369 12.4342 15.225 13.0667 15.6012 13.91C15.9774 14.7533 16.1655 15.45 16.1655 16C16.1655 16.385 16.1278 16.7102 16.0526 16.9757ZM12.3846 16.9757C12.3094 17.2419 12.1965 17.4667 12.0461 17.65H13.739C13.8894 17.43 14.0023 17.1961 14.0775 16.9482C14.1528 16.7011 14.1904 16.385 14.1904 16C14.1904 15.45 14.0023 14.7533 13.6261 13.91C13.2499 13.0667 13.0618 12.4342 13.0618 12.0125C13.0618 11.7925 13.0851 11.5633 13.1318 11.325C13.1792 11.0867 13.3063 10.8117 13.5132 10.5H11.8203C11.6134 10.8117 11.4863 11.0867 11.4389 11.325C11.3922 11.5633 11.3689 11.7925 11.3689 12.0125C11.3689 12.4342 11.557 13.0667 11.9332 13.91C12.3094 14.7533 12.4975 15.45 12.4975 16C12.4975 16.385 12.4599 16.7102 12.3846 16.9757ZM8.61738 25.1432C10.0567 26.3811 11.7263 27 13.6261 27C15.6012 27 17.3035 26.3444 18.733 25.0332C20.1626 23.7227 20.9808 22.0958 21.1877 20.1525L22.4856 8.19C22.5232 7.915 22.6455 7.68107 22.8524 7.4882C23.0593 7.29607 23.3132 7.2 23.6142 7.2C23.934 7.2 24.2018 7.30523 24.4178 7.5157C24.6345 7.7269 24.7428 7.98833 24.7428 8.3C24.7428 8.465 24.724 8.73523 24.6864 9.1107L24.6299 9.675L26.8589 9.95L26.93 9.3175C26.9767 8.89583 27 8.55667 27 8.3C27 7.38333 26.6708 6.60417 26.0125 5.9625C25.3541 5.32083 24.5547 5 23.6142 5C22.7301 5 21.9728 5.2794 21.3423 5.8382C20.7126 6.39773 20.3507 7.09 20.2566 7.915L19.0152 19.3H7.13666C6.79808 19.3 6.51593 19.4236 6.29021 19.6707C6.06449 19.9186 5.97044 20.2075 6.00806 20.5375C6.30902 22.3708 7.17879 23.9061 8.61738 25.1432Z" fill="#1D1E20"/>
</g>
<defs>
<clipPath id="clip0_13_38">
<rect width="32" height="32" fill="white"/>
</clipPath>
</defs>
</svg>
