<svg width="241" height="32" viewBox="0 0 241 32" fill="none" xmlns="http://www.w3.org/2000/svg">
<path d="M161.969 12V4H166.766V4.85937H162.938V7.5625H166.406V8.42187H162.938V12H161.969ZM170.297 12.125C169.755 12.125 169.28 11.9961 168.871 11.7383C168.465 11.4805 168.147 11.1198 167.918 10.6562C167.691 10.1927 167.578 9.65104 167.578 9.03125C167.578 8.40625 167.691 7.86068 167.918 7.39453C168.147 6.92839 168.465 6.56641 168.871 6.30859C169.28 6.05078 169.755 5.92188 170.297 5.92188C170.839 5.92188 171.313 6.05078 171.719 6.30859C172.128 6.56641 172.445 6.92839 172.672 7.39453C172.901 7.86068 173.016 8.40625 173.016 9.03125C173.016 9.65104 172.901 10.1927 172.672 10.6562C172.445 11.1198 172.128 11.4805 171.719 11.7383C171.313 11.9961 170.839 12.125 170.297 12.125ZM170.297 11.2969C170.708 11.2969 171.047 11.1914 171.312 10.9805C171.578 10.7695 171.775 10.4922 171.902 10.1484C172.03 9.80469 172.094 9.43229 172.094 9.03125C172.094 8.63021 172.03 8.25651 171.902 7.91016C171.775 7.5638 171.578 7.28385 171.312 7.07031C171.047 6.85677 170.708 6.75 170.297 6.75C169.885 6.75 169.547 6.85677 169.281 7.07031C169.016 7.28385 168.819 7.5638 168.691 7.91016C168.564 8.25651 168.5 8.63021 168.5 9.03125C168.5 9.43229 168.564 9.80469 168.691 10.1484C168.819 10.4922 169.016 10.7695 169.281 10.9805C169.547 11.1914 169.885 11.2969 170.297 11.2969ZM174.423 12V6H175.313V6.90625H175.376C175.485 6.60938 175.683 6.36849 175.97 6.18359C176.256 5.9987 176.579 5.90625 176.938 5.90625C177.006 5.90625 177.091 5.90755 177.192 5.91016C177.294 5.91276 177.371 5.91667 177.423 5.92188V6.85937C177.392 6.85156 177.32 6.83984 177.208 6.82422C177.099 6.80599 176.983 6.79687 176.86 6.79687C176.569 6.79687 176.308 6.85807 176.079 6.98047C175.853 7.10026 175.673 7.26693 175.54 7.48047C175.41 7.69141 175.345 7.93229 175.345 8.20312V12H174.423ZM161.969 25V17H164.672C165.297 17 165.81 17.1068 166.211 17.3203C166.612 17.5312 166.909 17.8216 167.102 18.1914C167.294 18.5612 167.391 18.9818 167.391 19.4531C167.391 19.9245 167.294 20.3424 167.102 20.707C166.909 21.0716 166.613 21.3581 166.215 21.5664C165.816 21.7721 165.307 21.875 164.688 21.875H162.5V21H164.656C165.083 21 165.427 20.9375 165.688 20.8125C165.951 20.6875 166.141 20.5104 166.258 20.2812C166.378 20.0495 166.438 19.7734 166.438 19.4531C166.438 19.1328 166.378 18.8529 166.258 18.6133C166.138 18.3737 165.947 18.1888 165.684 18.0586C165.421 17.9258 165.073 17.8594 164.641 17.8594H162.938V25H161.969ZM165.734 21.4062L167.703 25H166.578L164.641 21.4062H165.734ZM169.005 25V17H173.833V17.8594H169.974V20.5625H173.583V21.4219H169.974V24.1406H173.896V25H169.005ZM179.954 19C179.907 18.6042 179.717 18.2969 179.384 18.0781C179.05 17.8594 178.642 17.75 178.157 17.75C177.803 17.75 177.493 17.8073 177.228 17.9219C176.965 18.0365 176.759 18.194 176.61 18.3945C176.465 18.5951 176.392 18.8229 176.392 19.0781C176.392 19.2917 176.442 19.4753 176.544 19.6289C176.648 19.7799 176.781 19.9062 176.942 20.0078C177.104 20.1068 177.273 20.1888 177.45 20.2539C177.627 20.3164 177.79 20.3672 177.938 20.4062L178.751 20.625C178.959 20.6797 179.191 20.7552 179.446 20.8516C179.704 20.9479 179.95 21.0794 180.185 21.2461C180.422 21.4102 180.617 21.6211 180.771 21.8789C180.924 22.1367 181.001 22.4531 181.001 22.8281C181.001 23.2604 180.888 23.651 180.661 24C180.437 24.349 180.109 24.6263 179.677 24.832C179.247 25.0378 178.725 25.1406 178.11 25.1406C177.537 25.1406 177.041 25.0482 176.622 24.8633C176.205 24.6784 175.877 24.4206 175.638 24.0898C175.401 23.7591 175.267 23.375 175.235 22.9375H176.235C176.261 23.2396 176.363 23.4896 176.54 23.6875C176.72 23.8828 176.946 24.0286 177.22 24.125C177.496 24.2187 177.793 24.2656 178.11 24.2656C178.48 24.2656 178.812 24.2057 179.106 24.0859C179.401 23.9635 179.634 23.7943 179.806 23.5781C179.978 23.3594 180.063 23.1042 180.063 22.8125C180.063 22.5469 179.989 22.3307 179.841 22.1641C179.692 21.9974 179.497 21.862 179.255 21.7578C179.013 21.6536 178.751 21.5625 178.47 21.4844L177.485 21.2031C176.86 21.0234 176.366 20.7669 176.001 20.4336C175.636 20.1003 175.454 19.6641 175.454 19.125C175.454 18.6771 175.575 18.2865 175.817 17.9531C176.062 17.6172 176.39 17.3568 176.802 17.1719C177.216 16.9844 177.678 16.8906 178.188 16.8906C178.704 16.8906 179.162 16.9831 179.563 17.168C179.965 17.3503 180.282 17.6003 180.517 17.918C180.754 18.2357 180.879 18.5964 180.892 19H179.954ZM182.156 17.8594V17H188.156V17.8594H185.641V25H184.672V17.8594H182.156ZM189.045 25H188.029L190.967 17H191.967L194.904 25H193.889L191.498 18.2656H191.436L189.045 25ZM189.42 21.875H193.514V22.7344H189.42V21.875ZM201.4 17H202.369V22.2969C202.369 22.8437 202.24 23.332 201.982 23.7617C201.727 24.1888 201.367 24.526 200.9 24.7734C200.434 25.0182 199.887 25.1406 199.26 25.1406C198.632 25.1406 198.085 25.0182 197.619 24.7734C197.153 24.526 196.791 24.1888 196.533 23.7617C196.278 23.332 196.15 22.8437 196.15 22.2969V17H197.119V22.2188C197.119 22.6094 197.205 22.957 197.377 23.2617C197.549 23.5638 197.794 23.8021 198.111 23.9766C198.432 24.1484 198.814 24.2344 199.26 24.2344C199.705 24.2344 200.088 24.1484 200.408 23.9766C200.729 23.8021 200.973 23.5638 201.143 23.2617C201.314 22.957 201.4 22.6094 201.4 22.2188V17ZM204.304 25V17H207.007C207.632 17 208.145 17.1068 208.546 17.3203C208.947 17.5312 209.244 17.8216 209.437 18.1914C209.629 18.5612 209.726 18.9818 209.726 19.4531C209.726 19.9245 209.629 20.3424 209.437 20.707C209.244 21.0716 208.948 21.3581 208.55 21.5664C208.151 21.7721 207.642 21.875 207.022 21.875H204.835V21H206.991C207.418 21 207.762 20.9375 208.022 20.8125C208.285 20.6875 208.476 20.5104 208.593 20.2812C208.713 20.0495 208.772 19.7734 208.772 19.4531C208.772 19.1328 208.713 18.8529 208.593 18.6133C208.473 18.3737 208.282 18.1888 208.019 18.0586C207.756 17.9258 207.408 17.8594 206.976 17.8594H205.272V25H204.304ZM208.069 21.4062L210.038 25H208.913L206.976 21.4062H208.069ZM211.668 25H210.652L213.59 17H214.59L217.527 25H216.512L214.121 18.2656H214.059L211.668 25ZM212.043 21.875H216.137V22.7344H212.043V21.875ZM225.117 17V25H224.18L219.82 18.7187H219.742V25H218.773V17H219.711L224.086 23.2969H224.164V17H225.117ZM226.618 17.8594V17H232.618V17.8594H230.103V25H229.134V17.8594H226.618ZM238.488 19C238.441 18.6042 238.251 18.2969 237.918 18.0781C237.585 17.8594 237.176 17.75 236.691 17.75C236.337 17.75 236.027 17.8073 235.762 17.9219C235.499 18.0365 235.293 18.194 235.145 18.3945C234.999 18.5951 234.926 18.8229 234.926 19.0781C234.926 19.2917 234.977 19.4753 235.078 19.6289C235.182 19.7799 235.315 19.9062 235.477 20.0078C235.638 20.1068 235.807 20.1888 235.984 20.2539C236.161 20.3164 236.324 20.3672 236.473 20.4062L237.285 20.625C237.493 20.6797 237.725 20.7552 237.98 20.8516C238.238 20.9479 238.484 21.0794 238.719 21.2461C238.956 21.4102 239.151 21.6211 239.305 21.8789C239.458 22.1367 239.535 22.4531 239.535 22.8281C239.535 23.2604 239.422 23.651 239.195 24C238.971 24.349 238.643 24.6263 238.211 24.832C237.781 25.0378 237.259 25.1406 236.645 25.1406C236.072 25.1406 235.576 25.0482 235.156 24.8633C234.74 24.6784 234.411 24.4206 234.172 24.0898C233.935 23.7591 233.801 23.375 233.77 22.9375H234.77C234.796 23.2396 234.897 23.4896 235.074 23.6875C235.254 23.8828 235.48 24.0286 235.754 24.125C236.03 24.2187 236.327 24.2656 236.645 24.2656C237.014 24.2656 237.346 24.2057 237.641 24.0859C237.935 23.9635 238.168 23.7943 238.34 23.5781C238.512 23.3594 238.598 23.1042 238.598 22.8125C238.598 22.5469 238.523 22.3307 238.375 22.1641C238.227 21.9974 238.031 21.862 237.789 21.7578C237.547 21.6536 237.285 21.5625 237.004 21.4844L236.02 21.2031C235.395 21.0234 234.9 20.7669 234.535 20.4336C234.171 20.1003 233.988 19.6641 233.988 19.125C233.988 18.6771 234.109 18.2865 234.352 17.9531C234.596 17.6172 234.924 17.3568 235.336 17.1719C235.75 16.9844 236.212 16.8906 236.723 16.8906C237.238 16.8906 237.697 16.9831 238.098 17.168C238.499 17.3503 238.816 17.6003 239.051 17.918C239.288 18.2357 239.413 18.5964 239.426 19H238.488Z" fill="white"/>
<path d="M17.9337 4.8877V26.5454V26.5454C15.6155 26.5454 13.4545 25.3729 12.1908 23.4294L5.3189 12.8606H5.09363V22.2654C5.09363 24.6292 3.1774 26.5454 0.813599 26.5454V26.5454V4.8877H1.36612C3.41173 4.8877 5.32028 5.91615 6.44522 7.62466V7.62466C6.67049 7.98166 13.3158 18.2155 13.5411 18.4535C13.6537 18.4535 13.6537 18.4535 13.7663 18.4535V9.05509C13.7663 6.7535 15.6321 4.8877 17.9337 4.8877V4.8877Z" fill="white"/>
<path d="M40.8949 9.84133C40.0725 8.22852 38.7801 6.96131 37.2527 6.1549C35.8428 5.3485 34.0804 4.8877 32.2006 4.8877C30.3207 4.8877 28.5583 5.3485 27.0309 6.1549C25.5036 6.96131 24.3286 8.22852 23.5062 9.84133C22.6838 11.4541 22.2138 13.4126 22.2138 15.7166C22.2138 18.0206 22.6838 19.979 23.5062 21.5918C24.3286 23.2046 25.6211 24.4718 27.0309 25.2782C28.5583 26.0846 30.2032 26.5454 32.2006 26.5454C34.0804 26.5454 35.7253 26.0846 37.2527 25.2782C38.7801 24.4718 39.955 23.2046 40.8949 21.5918C41.8348 19.979 42.1873 18.0206 42.1873 15.7166C42.1873 13.4126 41.8348 11.4541 40.8949 9.84133ZM36.9002 19.6334C36.4302 20.6702 35.8428 21.4766 35.0203 21.9374C34.1979 22.5134 33.258 22.7438 32.2006 22.7438C31.1431 22.7438 30.2032 22.5134 29.3808 21.9374C28.5583 21.3614 27.9709 20.6702 27.5009 19.6334C27.0309 18.5966 26.796 17.3294 26.796 15.8318C26.796 14.3342 27.0309 13.067 27.5009 12.0301C27.9709 10.9933 28.5583 10.1869 29.3808 9.72613C30.2032 9.15013 31.1431 8.91972 32.2006 8.91972C33.258 8.91972 34.1979 9.15013 35.0203 9.72613C35.8428 10.3021 36.4302 10.9933 36.9002 12.0301C37.3702 13.067 37.6052 14.3342 37.6052 15.8318C37.6052 17.3294 37.3702 18.7118 36.9002 19.6334Z" fill="white"/>
<path d="M47.2786 12.1173C47.758 12.7039 48.1692 13.343 48.5042 14.0224L51.9499 21.0091C52.0143 21.1397 52.1473 21.2224 52.2929 21.2224V21.2224L55.777 10.5226C56.6771 7.75854 59.2538 5.8877 62.1608 5.8877V5.8877L55.0274 26.1016H49.3206L42.1873 5.8877L47.2786 12.1173Z" fill="white"/>
<path d="M74.8822 19.9843C74.4028 19.3977 73.9916 18.7586 73.6565 18.0792L70.2108 11.0925C70.1464 10.9619 70.0135 10.8792 69.8679 10.8792V10.8792L66.3838 21.579C65.4837 24.3431 62.907 26.2139 60 26.2139V26.2139L67.1334 5.99999L72.8401 5.99999L79.9735 26.2139L74.8822 19.9843Z" fill="white"/>
<path d="M151.028 19.872C150.549 19.2854 150.137 18.6463 149.802 17.9669L146.357 10.9802C146.292 10.8496 146.159 10.7669 146.014 10.7669V10.7669L142.53 21.4666C141.629 24.2307 139.053 26.1016 136.146 26.1016V26.1016L143.279 5.88769L148.986 5.88769L156.119 26.1016L151.028 19.872Z" fill="white"/>
<path d="M105.534 25.9893V5.77539H119.8V5.77539C119.8 7.70019 118.24 9.26055 116.315 9.26055H110.007V14.1398H118.954V17.6249H110.007V22.5041H116.315C118.24 22.5041 119.8 24.0645 119.8 25.9893V25.9893H105.534Z" fill="white"/>
<path d="M124.712 9.26055C122.787 9.26055 121.227 7.70019 121.227 5.77539V5.77539H138.347V5.77539C138.347 7.70019 136.787 9.26055 134.862 9.26055H131.927V25.9893H127.647V9.26055H124.712Z" fill="white"/>
<path d="M99.1288 17.2362C96.5202 15.894 93.6396 14.0376 93.5048 13.9571C88.3739 10.8704 89.2242 11.2459 83.6601 6.1442L84.3745 15.7727C90.5355 15.9418 95.293 21.77 99.4941 26.2898C99.4941 26.2933 99.2556 17.2968 99.1288 17.2362Z" fill="url(#paint0_linear_123_80)"/>
<path d="M83.3294 5.60547C83.8836 9.05481 84.0092 12.5776 83.9309 16.0689C83.8502 19.6876 83.5485 23.2977 83.0275 26.8787C84.4753 26.5049 85.8639 25.9266 87.1525 25.1611C87.7459 24.8112 88.3324 24.4112 88.8071 23.8399C90.0446 22.3507 90.3258 19.9147 90.0746 17.7131C89.7623 15.0089 88.7322 12.4179 87.194 10.4681C86.0948 9.0688 86.3425 9.17725 85.2755 7.74177C85.1879 7.62516 84.4689 6.89052 84.2892 6.67479C84.1866 6.55818 83.6658 6.01944 83.7926 6.11156" fill="url(#paint1_linear_123_80)"/>
<path d="M99.7532 4.86355C100.237 4.67998 100.513 4.21782 100.37 3.83127C100.227 3.44472 99.7185 3.28017 99.2347 3.46373C98.7508 3.6473 98.4747 4.10947 98.6178 4.49602C98.761 4.88257 99.2693 5.04712 99.7532 4.86355Z" fill="#E6007E"/>
<path d="M99.5437 26.291C99.0828 22.6131 99.0678 18.8722 99.2648 15.1722C99.4699 11.324 100.164 5.27895 99.8098 4.149C98.4145 2.39168 95.8531 2.46048 94.6317 3.28724C94.0348 3.69072 93.7099 4.5618 93.3089 5.31977C92.3537 7.1214 93.3527 11.2762 93.5394 13.6201C93.7756 16.4992 94.9485 18.8408 96.0293 21.2488C96.7979 22.9618 96.7841 22.9478 97.8464 24.508C97.934 24.6375 98.8224 25.5762 98.7106 25.4502C98.6288 25.3593 99.16 25.9307 99.0724 25.8444" fill="url(#paint2_linear_123_80)"/>
<path d="M94.9595 4.4044C95.2038 4.0738 95.0664 3.55191 94.6526 3.23873C94.2388 2.92554 93.7053 2.93966 93.461 3.27026C93.2167 3.60086 93.3541 4.12275 93.7679 4.43594C94.1817 4.74912 94.7152 4.735 94.9595 4.4044Z" fill="#E6007E"/>
<path d="M93.5785 13.2633C93.5906 13.3769 93.6106 13.4895 93.6384 13.6003C93.6707 13.7309 93.7145 13.8603 93.7537 13.9886L93.877 14.3524C93.9634 14.6078 94.0498 14.8643 94.1477 15.1186C94.2939 15.5105 94.474 15.8886 94.6858 16.2485C94.7748 16.4116 94.895 16.5552 95.0396 16.6706C95.2132 16.7995 95.4279 16.8589 95.6422 16.8374C95.767 16.8241 95.885 16.7734 95.9811 16.6918C96.0772 16.6101 96.1469 16.5012 96.1814 16.3791C96.2128 16.1583 96.1724 15.9332 96.0662 15.7378C95.7125 14.9215 95.0914 14.1169 95.1974 13.2574" fill="url(#paint3_linear_123_80)"/>
<path d="M97.2288 13.1408C97.1366 13.3402 97.2519 13.5548 97.3314 13.7577C97.6252 14.5005 97.4385 15.3028 97.1147 16.0398C97.0412 16.1785 96.9942 16.33 96.9765 16.4864C96.974 16.5703 96.9954 16.6531 97.0381 16.725C97.0808 16.7969 97.143 16.855 97.2173 16.8922C97.4055 16.9733 97.6166 16.982 97.8107 16.9167C97.9885 16.8566 98.1532 16.7624 98.2958 16.6392C98.4912 16.4954 98.6549 16.3119 98.7763 16.1004C98.838 15.9689 98.8837 15.8303 98.9122 15.6876L99.2579 14.2731" fill="url(#paint4_linear_123_80)"/>
<path d="M96.9869 5.22533C96.8309 5.14548 96.66 5.10003 96.4854 5.09199C96.3108 5.08395 96.1365 5.1135 95.974 5.17868C95.6499 5.31115 95.3482 5.49411 95.0799 5.72092C94.9099 5.83019 94.7706 5.98201 94.6755 6.16171C94.6379 6.25015 94.6218 6.34638 94.6285 6.44239C94.6352 6.5384 94.6644 6.63141 94.7138 6.71367C94.7632 6.79593 94.8313 6.86505 94.9124 6.91529C94.9935 6.96552 95.0853 6.99542 95.1802 7.00247C95.3876 7.01763 95.5857 6.92434 95.7851 6.86487C96.092 6.77391 96.4168 6.76348 96.7288 6.83455C96.9707 6.89052 97.2 6.99431 97.4431 7.04445C97.563 7.0779 97.6884 7.08542 97.8113 7.06654C97.9342 7.04765 98.0518 7.00278 98.1564 6.93484C98.2602 6.85177 98.3399 6.74175 98.3868 6.61649C98.4195 6.54345 98.433 6.46312 98.426 6.38327C98.3926 6.16054 98.1402 6.05909 97.9305 5.98329C97.5546 5.84227 97.2042 5.63935 96.8935 5.38275" fill="#E486B6"/>
<path d="M95.9982 5.88882C96.0121 5.91564 96.1065 5.97044 96.1204 5.98794C96.1849 6.06373 96.1837 6.02525 96.2471 6.10455C96.268 6.13415 96.2957 6.15816 96.3278 6.17451C96.3771 6.18813 96.4297 6.18273 96.4753 6.15935C96.6285 6.09839 96.7649 6.00076 96.8728 5.87482C96.8882 5.86036 96.8984 5.84105 96.9016 5.82002C96.9016 5.7757 96.8497 5.75238 96.8071 5.74305C96.5235 5.68361 96.2297 5.69643 95.9521 5.78037C95.9383 5.78037 95.9141 5.78037 95.9141 5.80136C95.9141 5.86316 95.9614 5.86083 95.9614 5.86083" fill="#A3195B"/>
<path d="M93.3135 7.07242C93.2686 7.74409 93.423 8.45192 93.7064 8.86938L93.9542 8.71896C94.2063 9.7144 94.564 10.6793 95.0211 11.5969C95.027 11.3622 95.1138 11.1369 95.2666 10.9602C95.338 11.2972 95.4394 11.6844 95.6295 11.7415C95.7263 11.7695 95.8254 11.7007 95.9245 11.7182C96.0236 11.7357 96.1261 11.9234 96.08 12.0878C96.4879 11.7932 96.9004 11.5211 97.3175 11.2716V11.8733C97.6816 11.6401 98.0504 11.4068 98.3649 10.994C98.7344 10.4793 98.9449 9.86539 98.9698 9.22971C98.9975 9.30901 99.062 9.33 99.1024 9.27286" fill="url(#paint5_linear_123_80)"/>
<path d="M95.3795 5.25913C95.5456 5.25913 95.6802 5.04977 95.6802 4.79152C95.6802 4.53327 95.5456 4.32391 95.3795 4.32391C95.2134 4.32391 95.0787 4.53327 95.0787 4.79152C95.0787 5.04977 95.2134 5.25913 95.3795 5.25913Z" fill="#5A1848"/>
<path d="M97.5422 5.33609C97.7083 5.33609 97.843 5.12674 97.843 4.86849C97.843 4.61023 97.7083 4.40088 97.5422 4.40088C97.3761 4.40088 97.2415 4.61023 97.2415 4.86849C97.2415 5.12674 97.3761 5.33609 97.5422 5.33609Z" fill="#5A1848"/>
<path d="M84.0576 13.9793C84.0127 14.9611 84.1671 15.9943 84.4494 16.6042L84.6971 16.385C84.9431 17.8128 85.2998 19.2188 85.7641 20.5899C85.7848 20.1946 85.8793 19.8343 86.0106 19.657C86.0809 20.1503 86.1823 20.7159 86.3724 20.7987C86.4704 20.8406 86.5695 20.7392 86.6674 20.766C86.7654 20.7928 86.8702 21.0657 86.8241 21.3059C87.2162 20.889 87.6289 20.4925 88.0605 20.1177V20.9981C88.4234 20.6622 88.7933 20.3194 89.1067 19.7153C89.4201 19.1113 89.6771 18.1901 89.7128 17.1371C89.7404 17.2537 89.805 17.284 89.8441 17.2001" fill="url(#paint6_linear_123_80)"/>
<defs>
<linearGradient id="paint0_linear_123_80" x1="84.1527" y1="16.5813" x2="99.1051" y2="15.8742" gradientUnits="userSpaceOnUse">
<stop offset="0.31" stop-color="#9E1E5E"/>
<stop offset="0.71" stop-color="#E93F84"/>
</linearGradient>
<linearGradient id="paint1_linear_123_80" x1="86.6867" y1="20.7775" x2="86.7168" y2="12.6582" gradientUnits="userSpaceOnUse">
<stop stop-color="#E21035"/>
<stop offset="1" stop-color="#E6007E"/>
</linearGradient>
<linearGradient id="paint2_linear_123_80" x1="96.1419" y1="18.9844" x2="97.595" y2="6.32297" gradientUnits="userSpaceOnUse">
<stop stop-color="#E21035"/>
<stop offset="1" stop-color="#E6007E"/>
</linearGradient>
<linearGradient id="paint3_linear_123_80" x1="94.8909" y1="13.2574" x2="94.8909" y2="16.8432" gradientUnits="userSpaceOnUse">
<stop stop-color="#E788B7" stop-opacity="0"/>
<stop offset="0.15" stop-color="#E77DB1" stop-opacity="0.16"/>
<stop offset="0.57" stop-color="#E55D9F" stop-opacity="0.61"/>
<stop offset="0.86" stop-color="#E44A94" stop-opacity="0.89"/>
<stop offset="1" stop-color="#E44290"/>
</linearGradient>
<linearGradient id="paint4_linear_123_80" x1="98.1149" y1="14.3583" x2="98.1149" y2="16.6636" gradientUnits="userSpaceOnUse">
<stop stop-color="#E788B7" stop-opacity="0"/>
<stop offset="0.15" stop-color="#E77DB1" stop-opacity="0.16"/>
<stop offset="0.57" stop-color="#E55D9F" stop-opacity="0.61"/>
<stop offset="0.86" stop-color="#E44A94" stop-opacity="0.89"/>
<stop offset="1" stop-color="#E44290"/>
</linearGradient>
<linearGradient id="paint5_linear_123_80" x1="96.0858" y1="8.65482" x2="95.0688" y2="12.6091" gradientUnits="userSpaceOnUse">
<stop stop-color="#E788B7" stop-opacity="0"/>
<stop offset="0.15" stop-color="#E77DB1" stop-opacity="0.16"/>
<stop offset="0.57" stop-color="#E55D9F" stop-opacity="0.61"/>
<stop offset="0.86" stop-color="#E44A94" stop-opacity="0.89"/>
<stop offset="1" stop-color="#E44290"/>
</linearGradient>
<linearGradient id="paint6_linear_123_80" x1="86.8483" y1="16.0328" x2="85.2846" y2="22.1109" gradientUnits="userSpaceOnUse">
<stop stop-color="#E788B7" stop-opacity="0"/>
<stop offset="0.15" stop-color="#E77DB1" stop-opacity="0.16"/>
<stop offset="0.57" stop-color="#E55D9F" stop-opacity="0.61"/>
<stop offset="0.86" stop-color="#E44A94" stop-opacity="0.89"/>
<stop offset="1" stop-color="#E44290"/>
</linearGradient>
</defs>
</svg>
