<svg width="156" height="40" viewBox="0 0 156 40" fill="none" xmlns="http://www.w3.org/2000/svg">
<path d="M26.9688 38V30H31.7656V30.8594H27.9375V33.5625H31.4063V34.4219H27.9375V38H26.9688ZM35.2969 38.125C34.7552 38.125 34.2799 37.9961 33.8711 37.7383C33.4648 37.4805 33.1471 37.1198 32.918 36.6562C32.6914 36.1927 32.5781 35.651 32.5781 35.0312C32.5781 34.4062 32.6914 33.8607 32.918 33.3945C33.1471 32.9284 33.4648 32.5664 33.8711 32.3086C34.2799 32.0508 34.7552 31.9219 35.2969 31.9219C35.8385 31.9219 36.3125 32.0508 36.7188 32.3086C37.1276 32.5664 37.4453 32.9284 37.6719 33.3945C37.901 33.8607 38.0156 34.4062 38.0156 35.0312C38.0156 35.651 37.901 36.1927 37.6719 36.6562C37.4453 37.1198 37.1276 37.4805 36.7188 37.7383C36.3125 37.9961 35.8385 38.125 35.2969 38.125ZM35.2969 37.2969C35.7083 37.2969 36.0469 37.1914 36.3125 36.9805C36.5781 36.7695 36.7747 36.4922 36.9023 36.1484C37.0299 35.8047 37.0938 35.4323 37.0938 35.0312C37.0938 34.6302 37.0299 34.2565 36.9023 33.9102C36.7747 33.5638 36.5781 33.2839 36.3125 33.0703C36.0469 32.8568 35.7083 32.75 35.2969 32.75C34.8854 32.75 34.5469 32.8568 34.2813 33.0703C34.0156 33.2839 33.819 33.5638 33.6914 33.9102C33.5638 34.2565 33.5 34.6302 33.5 35.0312C33.5 35.4323 33.5638 35.8047 33.6914 36.1484C33.819 36.4922 34.0156 36.7695 34.2813 36.9805C34.5469 37.1914 34.8854 37.2969 35.2969 37.2969ZM39.4229 38V32H40.3135V32.9062H40.376C40.4854 32.6094 40.6833 32.3685 40.9697 32.1836C41.2562 31.9987 41.5791 31.9062 41.9385 31.9062C42.0062 31.9062 42.0908 31.9076 42.1924 31.9102C42.2939 31.9128 42.3708 31.9167 42.4229 31.9219V32.8594C42.3916 32.8516 42.32 32.8398 42.208 32.8242C42.0986 32.806 41.9827 32.7969 41.8604 32.7969C41.5687 32.7969 41.3083 32.8581 41.0791 32.9805C40.8525 33.1003 40.6729 33.2669 40.54 33.4805C40.4098 33.6914 40.3447 33.9323 40.3447 34.2031V38H39.4229ZM46.7344 38V30H49.4375C50.0625 30 50.5755 30.1068 50.9766 30.3203C51.3776 30.5312 51.6745 30.8216 51.8672 31.1914C52.0599 31.5612 52.1563 31.9818 52.1563 32.4531C52.1563 32.9245 52.0599 33.3424 51.8672 33.707C51.6745 34.0716 51.3789 34.3581 50.9805 34.5664C50.582 34.7721 50.0729 34.875 49.4531 34.875H47.2656V34H49.4219C49.849 34 50.1927 33.9375 50.4531 33.8125C50.7161 33.6875 50.9063 33.5104 51.0234 33.2812C51.1432 33.0495 51.2031 32.7734 51.2031 32.4531C51.2031 32.1328 51.1432 31.8529 51.0234 31.6133C50.9036 31.3737 50.7122 31.1888 50.4492 31.0586C50.1862 30.9258 49.8385 30.8594 49.4062 30.8594H47.7031V38H46.7344ZM50.5 34.4062L52.4688 38H51.3438L49.4062 34.4062H50.5ZM53.7705 38V30H58.5986V30.8594H54.7393V33.5625H58.3486V34.4219H54.7393V37.1406H58.6611V38H53.7705ZM64.7197 32C64.6729 31.6042 64.4827 31.2969 64.1494 31.0781C63.8161 30.8594 63.4072 30.75 62.9229 30.75C62.5687 30.75 62.2588 30.8073 61.9932 30.9219C61.7301 31.0365 61.5244 31.194 61.376 31.3945C61.2301 31.5951 61.1572 31.8229 61.1572 32.0781C61.1572 32.2917 61.208 32.4753 61.3096 32.6289C61.4137 32.7799 61.5465 32.9062 61.708 33.0078C61.8695 33.1068 62.0387 33.1888 62.2158 33.2539C62.3929 33.3164 62.5557 33.3672 62.7041 33.4062L63.5166 33.625C63.7249 33.6797 63.9567 33.7552 64.2119 33.8516C64.4697 33.9479 64.7158 34.0794 64.9502 34.2461C65.1872 34.4102 65.3825 34.6211 65.5361 34.8789C65.6898 35.1367 65.7666 35.4531 65.7666 35.8281C65.7666 36.2604 65.6533 36.651 65.4268 37C65.2028 37.349 64.8747 37.6263 64.4424 37.832C64.0127 38.0378 63.4906 38.1406 62.876 38.1406C62.3031 38.1406 61.807 38.0482 61.3877 37.8633C60.971 37.6784 60.6429 37.4206 60.4033 37.0898C60.1663 36.7591 60.0322 36.375 60.001 35.9375H61.001C61.027 36.2396 61.1286 36.4896 61.3057 36.6875C61.4854 36.8828 61.7119 37.0286 61.9854 37.125C62.2614 37.2187 62.5583 37.2656 62.876 37.2656C63.2458 37.2656 63.5778 37.2057 63.8721 37.0859C64.1663 36.9635 64.3994 36.7943 64.5713 36.5781C64.7432 36.3594 64.8291 36.1042 64.8291 35.8125C64.8291 35.5469 64.7549 35.3307 64.6064 35.1641C64.458 34.9974 64.2627 34.862 64.0205 34.7578C63.7783 34.6536 63.5166 34.5625 63.2354 34.4844L62.251 34.2031C61.626 34.0234 61.1312 33.7669 60.7666 33.4336C60.402 33.1003 60.2197 32.6641 60.2197 32.125C60.2197 31.6771 60.3408 31.2865 60.583 30.9531C60.8278 30.6172 61.1559 30.3568 61.5674 30.1719C61.9814 29.9844 62.4437 29.8906 62.9541 29.8906C63.4697 29.8906 63.9281 29.9831 64.3291 30.168C64.7301 30.3503 65.0479 30.6003 65.2822 30.918C65.5192 31.2357 65.6442 31.5964 65.6572 32H64.7197ZM66.9219 30.8594V30H72.9219V30.8594H70.4063V38H69.4375V30.8594H66.9219ZM73.8105 38H72.7949L75.7324 30H76.7324L79.6699 38H78.6543L76.2637 31.2656H76.2012L73.8105 38ZM74.1855 34.875H78.2793V35.7344H74.1855V34.875ZM86.166 30H87.1348V35.2969C87.1348 35.8437 87.0059 36.332 86.748 36.7617C86.4928 37.1888 86.1322 37.526 85.666 37.7734C85.1999 38.0182 84.653 38.1406 84.0254 38.1406C83.3978 38.1406 82.8509 38.0182 82.3848 37.7734C81.9186 37.526 81.5566 37.1888 81.2988 36.7617C81.0436 36.332 80.916 35.8437 80.916 35.2969V30H81.8848V35.2188C81.8848 35.6094 81.9707 35.957 82.1426 36.2617C82.3145 36.5638 82.5592 36.8021 82.877 36.9766C83.1973 37.1484 83.5801 37.2344 84.0254 37.2344C84.4707 37.2344 84.8535 37.1484 85.1738 36.9766C85.4941 36.8021 85.7389 36.5638 85.9082 36.2617C86.0801 35.957 86.166 35.6094 86.166 35.2188V30ZM89.0693 38V30H91.7725C92.3975 30 92.9105 30.1068 93.3115 30.3203C93.7126 30.5312 94.0094 30.8216 94.2021 31.1914C94.3949 31.5612 94.4912 31.9818 94.4912 32.4531C94.4912 32.9245 94.3949 33.3424 94.2021 33.707C94.0094 34.0716 93.7139 34.3581 93.3154 34.5664C92.917 34.7721 92.4079 34.875 91.7881 34.875H89.6006V34H91.7568C92.1839 34 92.5277 33.9375 92.7881 33.8125C93.0511 33.6875 93.2412 33.5104 93.3584 33.2812C93.4782 33.0495 93.5381 32.7734 93.5381 32.4531C93.5381 32.1328 93.4782 31.8529 93.3584 31.6133C93.2386 31.3737 93.0472 31.1888 92.7842 31.0586C92.5212 30.9258 92.1735 30.8594 91.7412 30.8594H90.0381V38H89.0693ZM92.835 34.4062L94.8037 38H93.6787L91.7412 34.4062H92.835ZM96.4336 38H95.418L98.3555 30H99.3555L102.293 38H101.277L98.8867 31.2656H98.8242L96.4336 38ZM96.8086 34.875H100.902V35.7344H96.8086V34.875ZM109.883 30V38H108.945L104.586 31.7187H104.508V38H103.539V30H104.477L108.852 36.2969H108.93V30H109.883ZM111.384 30.8594V30H117.384V30.8594H114.868V38H113.899V30.8594H111.384ZM123.254 32C123.207 31.6042 123.017 31.2969 122.684 31.0781C122.35 30.8594 121.941 30.75 121.457 30.75C121.103 30.75 120.793 30.8073 120.527 30.9219C120.264 31.0365 120.059 31.194 119.91 31.3945C119.764 31.5951 119.691 31.8229 119.691 32.0781C119.691 32.2917 119.742 32.4753 119.844 32.6289C119.948 32.7799 120.081 32.9062 120.242 33.0078C120.404 33.1068 120.573 33.1888 120.75 33.2539C120.927 33.3164 121.09 33.3672 121.238 33.4062L122.051 33.625C122.259 33.6797 122.491 33.7552 122.746 33.8516C123.004 33.9479 123.25 34.0794 123.484 34.2461C123.721 34.4102 123.917 34.6211 124.07 34.8789C124.224 35.1367 124.301 35.4531 124.301 35.8281C124.301 36.2604 124.188 36.651 123.961 37C123.737 37.349 123.409 37.6263 122.977 37.832C122.547 38.0378 122.025 38.1406 121.41 38.1406C120.837 38.1406 120.341 38.0482 119.922 37.8633C119.505 37.6784 119.177 37.4206 118.938 37.0898C118.701 36.7591 118.566 36.375 118.535 35.9375H119.535C119.561 36.2396 119.663 36.4896 119.84 36.6875C120.02 36.8828 120.246 37.0286 120.52 37.125C120.796 37.2187 121.092 37.2656 121.41 37.2656C121.78 37.2656 122.112 37.2057 122.406 37.0859C122.701 36.9635 122.934 36.7943 123.105 36.5781C123.277 36.3594 123.363 36.1042 123.363 35.8125C123.363 35.5469 123.289 35.3307 123.141 35.1641C122.992 34.9974 122.797 34.862 122.555 34.7578C122.313 34.6536 122.051 34.5625 121.77 34.4844L120.785 34.2031C120.16 34.0234 119.665 33.7669 119.301 33.4336C118.936 33.1003 118.754 32.6641 118.754 32.125C118.754 31.6771 118.875 31.2865 119.117 30.9531C119.362 30.6172 119.69 30.3568 120.102 30.1719C120.516 29.9844 120.978 29.8906 121.488 29.8906C122.004 29.8906 122.462 29.9831 122.863 30.168C123.264 30.3503 123.582 30.6003 123.816 30.918C124.053 31.2357 124.178 31.5964 124.191 32H123.254Z" fill="black"/>
<path d="M17.1201 4.8877V26.5454V26.5454C14.8019 26.5454 12.6409 25.3729 11.3772 23.4294L4.5053 12.8606H4.28004V22.2654C4.28004 24.6292 2.3638 26.5454 0 26.5454V26.5454V4.8877H0.55252C2.59813 4.8877 4.50668 5.91615 5.63163 7.62466V7.62466C5.85689 7.98166 12.5022 18.2155 12.7275 18.4535C12.8401 18.4535 12.8401 18.4535 12.9527 18.4535V9.05509C12.9527 6.7535 14.8185 4.8877 17.1201 4.8877V4.8877Z" fill="black"/>
<path d="M40.0813 9.84133C39.2589 8.22852 37.9665 6.96131 36.4391 6.1549C35.0292 5.3485 33.2668 4.8877 31.387 4.8877C29.5071 4.8877 27.7447 5.3485 26.2173 6.1549C24.69 6.96131 23.515 8.22852 22.6926 9.84133C21.8702 11.4541 21.4002 13.4126 21.4002 15.7166C21.4002 18.0206 21.8702 19.979 22.6926 21.5918C23.515 23.2046 24.8075 24.4718 26.2173 25.2782C27.7447 26.0846 29.3896 26.5454 31.387 26.5454C33.2668 26.5454 34.9117 26.0846 36.4391 25.2782C37.9665 24.4718 39.1414 23.2046 40.0813 21.5918C41.0212 19.979 41.3737 18.0206 41.3737 15.7166C41.3737 13.4126 41.0212 11.4541 40.0813 9.84133ZM36.0866 19.6334C35.6166 20.6702 35.0292 21.4766 34.2067 21.9374C33.3843 22.5134 32.4444 22.7438 31.387 22.7438C30.3295 22.7438 29.3896 22.5134 28.5672 21.9374C27.7447 21.3614 27.1573 20.6702 26.6873 19.6334C26.2173 18.5966 25.9824 17.3294 25.9824 15.8318C25.9824 14.3342 26.2173 13.067 26.6873 12.0301C27.1573 10.9933 27.7447 10.1869 28.5672 9.72613C29.3896 9.15013 30.3295 8.91972 31.387 8.91972C32.4444 8.91972 33.3843 9.15013 34.2067 9.72613C35.0292 10.3021 35.6166 10.9933 36.0866 12.0301C36.5566 13.067 36.7916 14.3342 36.7916 15.8318C36.7916 17.3294 36.5566 18.7118 36.0866 19.6334Z" fill="black"/>
<path d="M46.465 12.1173C46.9444 12.7039 47.3556 13.343 47.6906 14.0224L51.1363 21.0091C51.2007 21.1397 51.3337 21.2224 51.4793 21.2224V21.2224L54.9634 10.5226C55.8635 7.75854 58.4402 5.8877 61.3472 5.8877V5.8877L54.2138 26.1016H48.5071L41.3737 5.8877L46.465 12.1173Z" fill="black"/>
<path d="M74.0686 19.9842C73.5892 19.3977 73.178 18.7586 72.8429 18.0792L69.3972 11.0924C69.3328 10.9619 69.1999 10.8792 69.0543 10.8792V10.8792L65.5702 21.5789C64.6701 24.343 62.0934 26.2139 59.1864 26.2139V26.2139L66.3198 5.99996L72.0265 5.99996L79.1599 26.2139L74.0686 19.9842Z" fill="black"/>
<path d="M150.214 19.8719C149.735 19.2854 149.324 18.6463 148.989 17.9669L145.543 10.9801C145.479 10.8496 145.346 10.7669 145.2 10.7669V10.7669L141.716 21.4666C140.816 24.2307 138.239 26.1016 135.332 26.1016V26.1016L142.466 5.88766L148.172 5.88766L155.306 26.1016L150.214 19.8719Z" fill="black"/>
<path d="M104.72 25.9893V5.77539H118.987V5.77539C118.987 7.70019 117.426 9.26055 115.502 9.26055H109.193V14.1398H118.14V17.6249H109.193V22.5041H115.502C117.426 22.5041 118.987 24.0645 118.987 25.9893V25.9893H104.72Z" fill="black"/>
<path d="M123.899 9.26055C121.974 9.26055 120.413 7.70019 120.413 5.77539V5.77539H137.534V5.77539C137.534 7.70019 135.973 9.26055 134.048 9.26055H131.114V25.9893H126.834V9.26055H123.899Z" fill="black"/>
<path d="M98.3152 17.2362C95.7066 15.894 92.826 14.0376 92.6912 13.9571C87.5603 10.8705 88.4106 11.2459 82.8465 6.14423L83.5609 15.7728C89.7219 15.9418 94.4794 21.77 98.6805 26.2899C98.6805 26.2934 98.442 17.2969 98.3152 17.2362Z" fill="url(#paint0_linear_126_81)"/>
<path d="M82.5158 5.60547C83.07 9.05481 83.1956 12.5776 83.1173 16.0689C83.0366 19.6876 82.7349 23.2977 82.2139 26.8787C83.6617 26.5049 85.0503 25.9266 86.3389 25.1611C86.9323 24.8112 87.5188 24.4112 87.9935 23.8399C89.231 22.3507 89.5122 19.9147 89.261 17.7131C88.9487 15.0089 87.9186 12.4179 86.3804 10.4681C85.2812 9.0688 85.5289 9.17725 84.4619 7.74177C84.3743 7.62516 83.6553 6.89052 83.4756 6.67479C83.373 6.55818 82.8522 6.01944 82.979 6.11156" fill="url(#paint1_linear_126_81)"/>
<path d="M98.9396 4.86358C99.4234 4.68002 99.6996 4.21785 99.5564 3.8313C99.4132 3.44475 98.9049 3.2802 98.4211 3.46377C97.9372 3.64733 97.6611 4.1095 97.8042 4.49605C97.9474 4.8826 98.4557 5.04715 98.9396 4.86358Z" fill="#E6007E"/>
<path d="M98.7301 26.291C98.2692 22.6131 98.2542 18.8722 98.4512 15.1722C98.6563 11.324 99.35 5.27895 98.9962 4.149C97.6009 2.39168 95.0395 2.46048 93.8181 3.28724C93.2212 3.69072 92.8963 4.5618 92.4953 5.31977C91.5401 7.1214 92.5391 11.2762 92.7258 13.6201C92.962 16.4992 94.1349 18.8408 95.2157 21.2488C95.9843 22.9618 95.9705 22.9478 97.0328 24.508C97.1204 24.6375 98.0088 25.5762 97.897 25.4502C97.8152 25.3593 98.3464 25.9307 98.2588 25.8444" fill="url(#paint2_linear_126_81)"/>
<path d="M94.1459 4.40443C94.3902 4.07383 94.2528 3.55194 93.839 3.23876C93.4252 2.92558 92.8917 2.93969 92.6474 3.27029C92.4031 3.60089 92.5405 4.12278 92.9543 4.43597C93.3681 4.74915 93.9016 4.73503 94.1459 4.40443Z" fill="#E6007E"/>
<path d="M92.7649 13.2633C92.777 13.3769 92.797 13.4895 92.8248 13.6003C92.8571 13.7309 92.9009 13.8603 92.9401 13.9886L93.0634 14.3524C93.1498 14.6078 93.2362 14.8643 93.3341 15.1186C93.4803 15.5105 93.6604 15.8886 93.8722 16.2485C93.9612 16.4116 94.0815 16.5552 94.226 16.6706C94.3996 16.7995 94.6143 16.8589 94.8286 16.8374C94.9534 16.8241 95.0714 16.7734 95.1675 16.6918C95.2636 16.6101 95.3333 16.5012 95.3678 16.3791C95.3992 16.1583 95.3588 15.9332 95.2526 15.7378C94.8989 14.9215 94.2778 14.1169 94.3838 13.2574" fill="url(#paint3_linear_126_81)"/>
<path d="M96.4152 13.1409C96.323 13.3403 96.4383 13.5548 96.5178 13.7577C96.8116 14.5005 96.6249 15.3028 96.3011 16.0398C96.2276 16.1785 96.1806 16.33 96.1629 16.4864C96.1604 16.5703 96.1818 16.6531 96.2245 16.725C96.2672 16.797 96.3294 16.855 96.4037 16.8922C96.5919 16.9734 96.803 16.9821 96.9971 16.9167C97.1749 16.8567 97.3396 16.7624 97.4822 16.6392C97.6776 16.4954 97.8413 16.3119 97.9627 16.1004C98.0244 15.969 98.0701 15.8303 98.0986 15.6876L98.4443 14.2732" fill="url(#paint4_linear_126_81)"/>
<path d="M96.1733 5.22533C96.0173 5.14548 95.8464 5.10003 95.6718 5.09199C95.4972 5.08395 95.3229 5.1135 95.1604 5.17868C94.8363 5.31115 94.5346 5.49411 94.2663 5.72092C94.0963 5.83019 93.957 5.98201 93.8619 6.16171C93.8243 6.25015 93.8082 6.34638 93.8149 6.44239C93.8216 6.5384 93.8508 6.63141 93.9002 6.71367C93.9496 6.79593 94.0177 6.86505 94.0988 6.91529C94.1799 6.96552 94.2717 6.99542 94.3666 7.00247C94.574 7.01763 94.7721 6.92434 94.9715 6.86487C95.2784 6.77391 95.6032 6.76348 95.9152 6.83455C96.1571 6.89052 96.3864 6.99431 96.6295 7.04445C96.7494 7.0779 96.8748 7.08542 96.9977 7.06654C97.1206 7.04765 97.2382 7.00278 97.3428 6.93484C97.4466 6.85177 97.5263 6.74175 97.5732 6.61649C97.6059 6.54345 97.6194 6.46312 97.6124 6.38327C97.579 6.16054 97.3267 6.05909 97.1169 5.98329C96.741 5.84227 96.3906 5.63935 96.0799 5.38275" fill="#E486B6"/>
<path d="M95.1846 5.88882C95.1985 5.91564 95.2929 5.97044 95.3068 5.98794C95.3713 6.06373 95.3701 6.02525 95.4335 6.10455C95.4544 6.13415 95.4821 6.15816 95.5142 6.17451C95.5635 6.18813 95.6161 6.18273 95.6617 6.15935C95.8149 6.09839 95.9513 6.00076 96.0592 5.87482C96.0746 5.86036 96.0848 5.84105 96.088 5.82002C96.088 5.7757 96.0361 5.75238 95.9935 5.74305C95.7099 5.68361 95.4161 5.69643 95.1386 5.78037C95.1247 5.78037 95.1005 5.78037 95.1005 5.80136C95.1005 5.86316 95.1478 5.86083 95.1478 5.86083" fill="#A3195B"/>
<path d="M92.4999 7.07245C92.455 7.74413 92.6094 8.45195 92.8928 8.86942L93.1406 8.71899C93.3927 9.71443 93.7504 10.6794 94.2075 11.5969C94.2134 11.3622 94.3002 11.137 94.453 10.9602C94.5244 11.2972 94.6258 11.6844 94.8159 11.7415C94.9127 11.7695 95.0118 11.7007 95.1109 11.7182C95.21 11.7357 95.3125 11.9234 95.2664 12.0879C95.6743 11.7932 96.0868 11.5211 96.5039 11.2716V11.8733C96.868 11.6401 97.2368 11.4069 97.5513 10.9941C97.9208 10.4794 98.1313 9.86542 98.1562 9.22974C98.1839 9.30904 98.2484 9.33003 98.2888 9.27289" fill="url(#paint5_linear_126_81)"/>
<path d="M94.5659 5.25913C94.732 5.25913 94.8666 5.04977 94.8666 4.79152C94.8666 4.53327 94.732 4.32391 94.5659 4.32391C94.3998 4.32391 94.2651 4.53327 94.2651 4.79152C94.2651 5.04977 94.3998 5.25913 94.5659 5.25913Z" fill="#5A1848"/>
<path d="M96.7286 5.33609C96.8947 5.33609 97.0294 5.12674 97.0294 4.86849C97.0294 4.61023 96.8947 4.40088 96.7286 4.40088C96.5625 4.40088 96.4279 4.61023 96.4279 4.86849C96.4279 5.12674 96.5625 5.33609 96.7286 5.33609Z" fill="#5A1848"/>
<path d="M83.244 13.9792C83.1991 14.9611 83.3535 15.9943 83.6358 16.6042L83.8835 16.3849C84.1295 17.8128 84.4862 19.2188 84.9505 20.5899C84.9712 20.1946 85.0657 19.8343 85.197 19.657C85.2673 20.1503 85.3687 20.7158 85.5588 20.7986C85.6568 20.8406 85.7559 20.7392 85.8538 20.766C85.9518 20.7928 86.0566 21.0657 86.0105 21.3059C86.4026 20.889 86.8153 20.4924 87.2469 20.1176V20.998C87.6098 20.6622 87.9797 20.3194 88.2931 19.7153C88.6065 19.1113 88.8635 18.1901 88.8992 17.1371C88.9268 17.2537 88.9914 17.284 89.0305 17.2" fill="url(#paint6_linear_126_81)"/>
<defs>
<linearGradient id="paint0_linear_126_81" x1="83.3391" y1="16.5814" x2="98.2915" y2="15.8743" gradientUnits="userSpaceOnUse">
<stop offset="0.31" stop-color="#9E1E5E"/>
<stop offset="0.71" stop-color="#E93F84"/>
</linearGradient>
<linearGradient id="paint1_linear_126_81" x1="85.8731" y1="20.7775" x2="85.9032" y2="12.6582" gradientUnits="userSpaceOnUse">
<stop stop-color="#E21035"/>
<stop offset="1" stop-color="#E6007E"/>
</linearGradient>
<linearGradient id="paint2_linear_126_81" x1="95.3283" y1="18.9844" x2="96.7814" y2="6.32297" gradientUnits="userSpaceOnUse">
<stop stop-color="#E21035"/>
<stop offset="1" stop-color="#E6007E"/>
</linearGradient>
<linearGradient id="paint3_linear_126_81" x1="94.0773" y1="13.2574" x2="94.0773" y2="16.8432" gradientUnits="userSpaceOnUse">
<stop stop-color="#E788B7" stop-opacity="0"/>
<stop offset="0.15" stop-color="#E77DB1" stop-opacity="0.16"/>
<stop offset="0.57" stop-color="#E55D9F" stop-opacity="0.61"/>
<stop offset="0.86" stop-color="#E44A94" stop-opacity="0.89"/>
<stop offset="1" stop-color="#E44290"/>
</linearGradient>
<linearGradient id="paint4_linear_126_81" x1="97.3013" y1="14.3583" x2="97.3013" y2="16.6637" gradientUnits="userSpaceOnUse">
<stop stop-color="#E788B7" stop-opacity="0"/>
<stop offset="0.15" stop-color="#E77DB1" stop-opacity="0.16"/>
<stop offset="0.57" stop-color="#E55D9F" stop-opacity="0.61"/>
<stop offset="0.86" stop-color="#E44A94" stop-opacity="0.89"/>
<stop offset="1" stop-color="#E44290"/>
</linearGradient>
<linearGradient id="paint5_linear_126_81" x1="95.2722" y1="8.65485" x2="94.2552" y2="12.6091" gradientUnits="userSpaceOnUse">
<stop stop-color="#E788B7" stop-opacity="0"/>
<stop offset="0.15" stop-color="#E77DB1" stop-opacity="0.16"/>
<stop offset="0.57" stop-color="#E55D9F" stop-opacity="0.61"/>
<stop offset="0.86" stop-color="#E44A94" stop-opacity="0.89"/>
<stop offset="1" stop-color="#E44290"/>
</linearGradient>
<linearGradient id="paint6_linear_126_81" x1="86.0347" y1="16.0328" x2="84.471" y2="22.1109" gradientUnits="userSpaceOnUse">
<stop stop-color="#E788B7" stop-opacity="0"/>
<stop offset="0.15" stop-color="#E77DB1" stop-opacity="0.16"/>
<stop offset="0.57" stop-color="#E55D9F" stop-opacity="0.61"/>
<stop offset="0.86" stop-color="#E44A94" stop-opacity="0.89"/>
<stop offset="1" stop-color="#E44290"/>
</linearGradient>
</defs>
</svg>
