<svg width="227" height="19" viewBox="0 0 227 19" fill="none" xmlns="http://www.w3.org/2000/svg">
<g clip-path="url(#clip0_13_12)">
<path d="M15.2 0.5V18.7H11.9L4 7.2H3.8V18.7H0V0.5H3.4L5 2.8C5.2 3.1 11.1 11.7 11.3 11.9C11.4 11.9 11.4 11.9 11.5 11.9V0.5H15.2Z" fill="white"/>
<path d="M34.7 4.3C34 2.9 32.9 1.8 31.6 1.1C30.4 0.4 28.9 0 27.3 0C25.7 0 24.2 0.4 22.9 1.1C21.6 1.8 20.6 2.9 19.9 4.3C19.2 5.7 18.8 7.4 18.8 9.4C18.8 11.4 19.2 13.1 19.9 14.5C20.6 15.9 21.7 17 22.9 17.7C24.2 18.4 25.6 18.8 27.3 18.8C28.9 18.8 30.3 18.4 31.6 17.7C32.9 17 33.9 15.9 34.7 14.5C35.5 13.1 35.8 11.4 35.8 9.4C35.8 7.4 35.5 5.7 34.7 4.3ZM31.3 12.8C30.9 13.7 30.4 14.4 29.7 14.8C29 15.3 28.2 15.5 27.3 15.5C26.4 15.5 25.6 15.3 24.9 14.8C24.2 14.3 23.7 13.7 23.3 12.8C22.9 11.9 22.7 10.8 22.7 9.5C22.7 8.2 22.9 7.1 23.3 6.2C23.7 5.3 24.2 4.6 24.9 4.2C25.6 3.7 26.4 3.5 27.3 3.5C28.2 3.5 29 3.7 29.7 4.2C30.4 4.7 30.9 5.3 31.3 6.2C31.7 7.1 31.9 8.2 31.9 9.5C31.9 10.8 31.7 12 31.3 12.8Z" fill="white"/>
<path d="M40.9 0.299988L45.1 13.5H45.3L49.5 0.299988H53.6L47.6 17.7H42.8L36.8 0.299988H40.9Z" fill="white"/>
<path d="M57.8 17.7H53.8L59.8 0.299988H64.6L70.6 17.7H66.7L62.3 4.29999H62.2L57.8 17.7Z" fill="white"/>
<path d="M88.5 0.299988V17.7H85.3L77.7 6.69999H77.6V17.7H73.9V0.299988H77.2L84.7 11.2H84.8V0.299988H88.5Z" fill="#666666"/>
<path d="M93 17.7V0.299988H104.8V3.29999H96.7V7.49999H104.1V10.5H96.7V14.7H104.8V17.7H93Z" fill="white"/>
<path d="M107 3.29999V0.299988H121.4V3.29999H116V17.7H112.4V3.29999H107Z" fill="white"/>
<path d="M124.6 17.7H120.6L126.7 0.299988H131.4L137.4 17.7H133.5L129.1 4.29999H129L124.6 17.7Z" fill="white"/>
<path d="M150 4.80001C149.9 3.80001 149.5 3.10001 148.7 2.50001C147.9 1.90001 147 1.60001 145.8 1.60001C145 1.60001 144.3 1.70001 143.7 2.00001C143.1 2.30001 142.6 2.70001 142.3 3.20001C142 3.70001 141.8 4.20001 141.8 4.90001C141.8 5.40001 141.9 5.80001 142.1 6.10001C142.3 6.40001 142.6 6.70001 142.9 7.00001C143.2 7.20001 143.6 7.50001 144 7.60001C144.4 7.80001 144.8 7.90001 145.3 8.00001L147.1 8.50001C147.7 8.70001 148.2 8.80001 148.8 9.10001C149.4 9.30001 149.9 9.60001 150.3 10C150.8 10.4 151.1 10.8 151.4 11.3C151.7 11.8 151.8 12.4 151.8 13.2C151.8 14.1 151.6 15 151.1 15.7C150.6 16.4 149.9 17 149 17.5C148.1 17.9 147 18.1 145.8 18.1C144.6 18.1 143.6 17.9 142.7 17.5C141.8 17.1 141.1 16.6 140.6 15.9C140.1 15.2 139.8 14.4 139.8 13.5H141.4C141.5 14.2 141.7 14.8 142.1 15.2C142.5 15.7 143 16 143.7 16.3C144.3 16.5 145 16.7 145.8 16.7C146.7 16.7 147.4 16.6 148.1 16.3C148.8 16 149.3 15.6 149.7 15.1C150.1 14.6 150.3 14 150.3 13.3C150.3 12.7 150.1 12.2 149.8 11.8C149.5 11.4 149.1 11.1 148.5 10.8C148 10.5 147.3 10.3 146.6 10.1L144.5 9.50001C143.1 9.10001 142.1 8.50001 141.3 7.80001C140.5 7.10001 140.2 6.20001 140.2 5.00001C140.2 4.10001 140.4 3.20001 141 2.50001C141.5 1.80001 142.2 1.20001 143 0.800012C143.9 0.400012 144.8 0.200012 145.9 0.200012C147 0.200012 147.9 0.400012 148.8 0.800012C149.6 1.20001 150.3 1.70001 150.8 2.40001C151.3 3.10001 151.6 3.90001 151.6 4.80001H150Z" fill="white"/>
<path d="M154.5 1.9V0.5H167.2V1.9H161.7V17.9H160.1V1.9H154.5Z" fill="white"/>
<path d="M182.4 0.5H184V12C184 13.2 183.7 14.2 183.2 15.2C182.6 16.1 181.9 16.9 180.9 17.4C179.9 17.9 178.8 18.2 177.4 18.2C176.1 18.2 174.9 17.9 173.9 17.4C172.9 16.9 172.1 16.1 171.6 15.2C171 14.3 170.8 13.2 170.8 12V0.5H172.4V11.9C172.4 12.8 172.6 13.7 173 14.4C173.4 15.1 174 15.7 174.7 16.1C175.5 16.5 176.3 16.7 177.4 16.7C178.4 16.7 179.3 16.5 180 16.1C180.8 15.7 181.3 15.1 181.7 14.4C182.1 13.7 182.3 12.8 182.3 11.9V0.5H182.4Z" fill="white"/>
<path d="M189.2 18H193.3C195.1 18 196.6 17.6 197.8 16.9C199 16.2 199.9 15.2 200.5 13.8C201.1 12.5 201.4 10.9 201.4 9.09999C201.4 7.29999 201.1 5.69999 200.5 4.39999C199.9 3.09999 199 2.09999 197.9 1.39999C196.7 0.699994 195.3 0.399994 193.6 0.399994H189.1V18H189.2Z" fill="white"/>
<path d="M207.5 0.5H205.9V18H207.5V0.5Z" fill="white"/>
<path d="M226.4 9.19999C226.4 11 226.1 12.6 225.4 13.9C224.8 15.2 223.9 16.3 222.7 17C221.6 17.7 220.3 18.1 218.8 18.1C217.3 18.1 216 17.7 214.9 17C213.8 16.3 212.9 15.2 212.2 13.9C211.6 12.6 211.2 11 211.2 9.19999C211.2 7.39999 211.5 5.79999 212.2 4.49999C212.8 3.19999 213.7 2.09999 214.9 1.39999C216 0.699988 217.3 0.299988 218.8 0.299988C220.3 0.299988 221.6 0.699988 222.7 1.39999C223.8 2.09999 224.7 3.19999 225.4 4.49999C226.1 5.79999 226.4 7.39999 226.4 9.19999Z" fill="white"/>
<path d="M224.9 9.20001C224.9 7.60001 224.6 6.30001 224.1 5.20001C223.6 4.10001 222.9 3.20001 222 2.60001C221 2.00001 220 1.70001 218.9 1.70001C217.8 1.70001 216.7 2.00001 215.8 2.60001C214.9 3.20001 214.2 4.00001 213.7 5.20001C213.2 6.30001 212.9 7.70001 212.9 9.20001C212.9 10.8 213.2 12.1 213.7 13.2C214.2 14.3 214.9 15.2 215.8 15.8C216.7 16.4 217.7 16.7 218.9 16.7C220 16.7 221.1 16.4 222 15.8C222.9 15.2 223.6 14.4 224.1 13.2C224.6 12.1 224.9 10.8 224.9 9.20001Z" fill="white"/>
</g>
<defs>
<clipPath id="clip0_13_12">
<rect width="226.4" height="18.7" fill="white"/>
</clipPath>
</defs>
</svg>
