<svg width="36" height="36" viewBox="0 0 36 36" fill="none" xmlns="http://www.w3.org/2000/svg">
<path fill-rule="evenodd" clip-rule="evenodd" d="M10.8 0H27C28.989 0 30.6 1.6974 30.6 3.789V32.211C30.6 34.3026 28.989 36 27 36H10.8C8.811 36 7.2 34.3026 7.2 32.211V3.789C7.2 1.6974 8.811 0 10.8 0ZM12.6 3.6C12.1226 3.6 11.6648 3.78964 11.3272 4.12721C10.9896 4.46477 10.8 4.92261 10.8 5.4V30.6C10.8 31.0774 10.9896 31.5352 11.3272 31.8728C11.6648 32.2104 12.1226 32.4 12.6 32.4H25.2C25.6774 32.4 26.1352 32.2104 26.4728 31.8728C26.8104 31.5352 27 31.0774 27 30.6V5.4C27 4.92261 26.8104 4.46477 26.4728 4.12721C26.1352 3.78964 25.6774 3.6 25.2 3.6H23.4V6.3C23.4 6.53869 23.3052 6.76761 23.1364 6.9364C22.9676 7.10518 22.7387 7.2 22.5 7.2H15.3C15.0613 7.2 14.8324 7.10518 14.6636 6.9364C14.4948 6.76761 14.4 6.53869 14.4 6.3V3.6H12.6Z" fill="white"/>
</svg>
