<svg width="36" height="36" viewBox="0 0 36 36" fill="none" xmlns="http://www.w3.org/2000/svg">
<g clip-path="url(#clip0_13_36)">
<path d="M3.375 0C2.47989 0 1.62145 0.355579 0.988515 0.988515C0.355579 1.62145 0 2.47989 0 3.375L0 19.125C0 20.0201 0.355579 20.8786 0.988515 21.5115C1.62145 22.1444 2.47989 22.5 3.375 22.5H13.5V24.75H2.25C1.65326 24.75 1.08097 24.9871 0.65901 25.409C0.237053 25.831 0 26.4033 0 27L0 33.75C0 34.3467 0.237053 34.919 0.65901 35.341C1.08097 35.7629 1.65326 36 2.25 36H33.75C34.3467 36 34.919 35.7629 35.341 35.341C35.7629 34.919 36 34.3467 36 33.75V27C36 26.4033 35.7629 25.831 35.341 25.409C34.919 24.9871 34.3467 24.75 33.75 24.75H22.5V22.5H32.625C33.5201 22.5 34.3786 22.1444 35.0115 21.5115C35.6444 20.8786 36 20.0201 36 19.125V3.375C36 2.47989 35.6444 1.62145 35.0115 0.988515C34.3786 0.355579 33.5201 0 32.625 0L3.375 0ZM3.375 2.25H32.625C32.9234 2.25 33.2095 2.36853 33.4205 2.5795C33.6315 2.79048 33.75 3.07663 33.75 3.375V19.125C33.75 19.4234 33.6315 19.7095 33.4205 19.9205C33.2095 20.1315 32.9234 20.25 32.625 20.25H3.375C3.07663 20.25 2.79048 20.1315 2.5795 19.9205C2.36853 19.7095 2.25 19.4234 2.25 19.125V3.375C2.25 3.07663 2.36853 2.79048 2.5795 2.5795C2.79048 2.36853 3.07663 2.25 3.375 2.25ZM27 28.125C27 27.8266 27.1185 27.5405 27.3295 27.3295C27.5405 27.1185 27.8266 27 28.125 27C28.4234 27 28.7095 27.1185 28.9205 27.3295C29.1315 27.5405 29.25 27.8266 29.25 28.125C29.25 28.4234 29.1315 28.7095 28.9205 28.9205C28.7095 29.1315 28.4234 29.25 28.125 29.25C27.8266 29.25 27.5405 29.1315 27.3295 28.9205C27.1185 28.7095 27 28.4234 27 28.125ZM31.5 28.125C31.5 27.8266 31.6185 27.5405 31.8295 27.3295C32.0405 27.1185 32.3266 27 32.625 27C32.9234 27 33.2095 27.1185 33.4205 27.3295C33.6315 27.5405 33.75 27.8266 33.75 28.125C33.75 28.4234 33.6315 28.7095 33.4205 28.9205C33.2095 29.1315 32.9234 29.25 32.625 29.25C32.3266 29.25 32.0405 29.1315 31.8295 28.9205C31.6185 28.7095 31.5 28.4234 31.5 28.125ZM3.375 27H14.625C14.9234 27 15.2095 27.1185 15.4205 27.3295C15.6315 27.5405 15.75 27.8266 15.75 28.125C15.75 28.4234 15.6315 28.7095 15.4205 28.9205C15.2095 29.1315 14.9234 29.25 14.625 29.25H3.375C3.07663 29.25 2.79048 29.1315 2.5795 28.9205C2.36853 28.7095 2.25 28.4234 2.25 28.125C2.25 27.8266 2.36853 27.5405 2.5795 27.3295C2.79048 27.1185 3.07663 27 3.375 27ZM2.25 32.0625C2.25 31.9133 2.30926 31.7702 2.41475 31.6648C2.52024 31.5593 2.66332 31.5 2.8125 31.5H15.1875C15.3367 31.5 15.4798 31.5593 15.5852 31.6648C15.6907 31.7702 15.75 31.9133 15.75 32.0625C15.75 32.2117 15.6907 32.3548 15.5852 32.4602C15.4798 32.5657 15.3367 32.625 15.1875 32.625H2.8125C2.66332 32.625 2.52024 32.5657 2.41475 32.4602C2.30926 32.3548 2.25 32.2117 2.25 32.0625Z" fill="white"/>
</g>
<defs>
<clipPath id="clip0_13_36">
<rect width="36" height="36" fill="white"/>
</clipPath>
</defs>
</svg>
