<svg width="50" height="50" viewBox="0 0 50 50" fill="none" xmlns="http://www.w3.org/2000/svg">
<path fill-rule="evenodd" clip-rule="evenodd" d="M47 25C47 37.1503 37.1503 47 25 47C12.8497 47 3 37.1503 3 25C3 12.8497 12.8497 3 25 3C37.1503 3 47 12.8497 47 25ZM50 25C50 38.8071 38.8071 50 25 50C11.1929 50 0 38.8071 0 25C0 11.1929 11.1929 0 25 0C38.8071 0 50 11.1929 50 25ZM44 25C44 35.4934 35.4934 44 25 44C14.5066 44 6 35.4934 6 25C6 14.5066 14.5066 6 25 6C35.4934 6 44 14.5066 44 25ZM25.4753 8.61246C25.2613 8.43798 24.9463 8.47003 24.7718 8.68406C24.5973 8.89809 24.6294 9.21305 24.8434 9.38754C25.3215 9.77725 25.4906 10.0002 25.5395 10.1086L25.5417 10.1136L25.5395 10.1163C25.5112 10.1511 25.4652 10.1949 25.3837 10.2645L25.3309 10.3092C25.2648 10.3649 25.1829 10.434 25.1072 10.5051C24.9019 10.698 24.6628 10.9758 24.5703 11.3887C24.508 11.6668 24.5679 11.9279 24.7234 12.1403C24.863 12.3309 25.0588 12.4549 25.231 12.5396C25.5328 12.688 25.925 12.79 26.2462 12.8734L26.2462 12.8735L26.3574 12.9025C26.5399 12.9505 26.6991 12.9946 26.8332 13.042C26.8924 13.0629 26.9401 13.0823 26.978 13.0996C26.6755 13.4694 26.4209 13.7514 26.2123 13.9824L26.2122 13.9824L26.2122 13.9825L26.2121 13.9825L26.2118 13.983C26.1604 14.0399 26.1118 14.0937 26.066 14.1449C25.9515 14.273 25.8448 14.3957 25.7619 14.5089C25.6835 14.6159 25.5911 14.7601 25.5528 14.9313C25.5067 15.137 25.5471 15.3401 25.6675 15.5128C25.768 15.6571 25.9089 15.7575 26.0267 15.83C26.2164 15.9466 26.4957 16.0766 26.8313 16.2328L26.8313 16.2328L26.8316 16.233C26.9082 16.2686 26.9877 16.3056 27.0698 16.3441C28.3235 16.9328 28.5208 18.0685 28.4779 18.5143C28.4515 18.7892 28.6528 19.0335 28.9277 19.0599C29.2026 19.0864 29.4469 18.885 29.4733 18.6101C29.5456 17.8596 29.2268 16.2522 27.4948 15.4389C27.3968 15.3929 27.3071 15.3511 27.2249 15.3128L27.2247 15.3127L27.2239 15.3123L27.2235 15.3121L27.2234 15.3121C26.9516 15.1853 26.7624 15.0971 26.6283 15.0232C26.6749 14.9661 26.7348 14.8973 26.8116 14.8113C26.853 14.765 26.8982 14.715 26.9469 14.6611L26.9475 14.6604L26.9489 14.6588L26.9492 14.6584L26.9493 14.6584C27.1625 14.4223 27.443 14.1118 27.771 13.7095C27.9238 13.5221 28.0586 13.2808 28.045 12.999C28.0305 12.6963 27.8538 12.4886 27.6889 12.3628C27.5302 12.2418 27.3378 12.1597 27.1664 12.0991C26.9895 12.0366 26.7945 11.9835 26.6119 11.9354L26.5112 11.909C26.164 11.818 25.8766 11.7427 25.6724 11.6423C25.622 11.6175 25.5861 11.5954 25.5616 11.5771L25.5552 11.5723C25.59 11.4549 25.6651 11.3532 25.792 11.2339C25.8463 11.1828 25.8991 11.1383 25.9604 11.0866L25.9605 11.0865L25.961 11.086C25.9838 11.0669 26.0077 11.0467 26.0333 11.0248C26.1178 10.9526 26.2245 10.8587 26.3146 10.7482C26.408 10.6336 26.502 10.4795 26.5361 10.2817C26.5709 10.0792 26.5342 9.88201 26.4513 9.69798C26.2992 9.36042 25.9661 9.01259 25.4753 8.61246ZM19 12C20.6569 12 22 13.3431 22 15C22 16.6569 20.6569 18 19 18C17.3431 18 16 16.6569 16 15C16 13.3431 17.3431 12 19 12ZM34 14C35.6569 14 37 15.3431 37 17C37 18.6569 35.6569 20 34 20C32.3431 20 31 18.6569 31 17C31 15.3431 32.3431 14 34 14ZM27 23C27 21.3431 25.6569 20 24 20C22.3431 20 21 21.3431 21 23C21 24.6569 22.3431 26 24 26C25.6569 26 27 24.6569 27 23ZM13 27C14.6569 27 16 28.3431 16 30C16 31.6569 14.6569 33 13 33C11.3431 33 10 31.6569 10 30C10 28.3431 11.3431 27 13 27ZM26 37C26 35.3431 24.6569 34 23 34C21.3431 34 20 35.3431 20 37C20 38.6569 21.3431 40 23 40C24.6569 40 26 38.6569 26 37ZM34 28C35.6569 28 37 29.3431 37 31C37 32.6569 35.6569 34 34 34C32.3431 34 31 32.6569 31 31C31 29.3431 32.3431 28 34 28ZM8.5 18.5C8.5 18.2239 8.72386 18 9 18C9.63324 18 10.1112 18.0591 10.4424 18.2247C10.6229 18.3149 10.7759 18.4445 10.8769 18.6235C10.9755 18.7983 11 18.9772 11 19.125C11 19.2676 10.9767 19.4078 10.9568 19.5172C10.9507 19.5506 10.9449 19.5816 10.9393 19.6111L10.9393 19.6111C10.9245 19.69 10.9117 19.7578 10.9019 19.8317C10.8788 20.0043 10.885 20.1306 10.9322 20.2436L10.9402 20.2433C10.9707 20.2419 11.0125 20.2364 11.0673 20.2237C11.289 20.1726 11.5593 20.0493 11.8859 19.9005L11.9806 19.8573C12.1525 19.7792 12.3372 19.6972 12.5139 19.6338C12.685 19.5725 12.886 19.5145 13.0854 19.5081C13.2928 19.5014 13.5609 19.5507 13.7635 19.7761C13.9521 19.986 14 20.2582 14 20.5C14 21.0191 13.9788 21.437 13.9627 21.7547V21.7547C13.959 21.8286 13.9555 21.8971 13.9526 21.9602C13.9474 22.0753 13.9445 22.1666 13.9444 22.2402C14.095 22.2128 14.2974 22.1616 14.5881 22.0881L14.5881 22.0881L14.5882 22.0881C14.6765 22.0658 14.773 22.0414 14.8787 22.0149C16.735 21.5509 17.9978 22.5953 18.416 23.2227C18.5692 23.4524 18.5071 23.7628 18.2774 23.916C18.0476 24.0692 17.7372 24.0071 17.584 23.7773C17.3355 23.4047 16.465 22.6491 15.1213 22.9851C15.034 23.0069 14.9496 23.0283 14.8683 23.0489L14.8671 23.0492L14.8661 23.0495L14.866 23.0495L14.8659 23.0495C14.5072 23.1405 14.2087 23.2162 13.988 23.2456C13.8509 23.2639 13.6782 23.2752 13.5091 23.2269C13.3067 23.169 13.147 23.0371 13.0528 22.8486C12.9743 22.6917 12.9548 22.5215 12.9479 22.3891C12.9407 22.2489 12.9458 22.0864 12.9536 21.9148C12.9568 21.8464 12.9604 21.7743 12.9642 21.698L12.9643 21.6979L12.9643 21.6975L12.9643 21.6967L12.9643 21.6966C12.9801 21.3857 12.9992 21.0062 13 20.5283C12.9597 20.5388 12.9105 20.554 12.8513 20.5752C12.7175 20.6232 12.5662 20.6896 12.3944 20.7677L12.2899 20.8154L12.2899 20.8154C11.9882 20.9537 11.6198 21.1225 11.2921 21.1981C11.1051 21.2413 10.875 21.269 10.6464 21.2094C10.3916 21.1431 10.1802 20.9785 10.0528 20.7236C9.86354 20.3451 9.8734 19.9788 9.91064 19.6995C9.92437 19.5965 9.94421 19.4913 9.96021 19.4064L9.96022 19.4064L9.97291 19.3383C9.99208 19.2328 10 19.1699 10 19.125L9.99998 19.1216L9.99514 19.1191C9.88878 19.0659 9.61676 19 9 19C8.72386 19 8.5 18.7761 8.5 18.5ZM22.413 30.6851C22.4469 30.4111 22.6966 30.2164 22.9707 30.2504C23.5991 30.3283 24.0662 30.4457 24.3745 30.6508C24.5425 30.7626 24.6785 30.91 24.7566 31.1C24.833 31.2856 24.8353 31.4662 24.8171 31.6129C24.7996 31.7544 24.7592 31.8906 24.726 31.9967C24.7158 32.0292 24.7062 32.0593 24.6971 32.0878C24.6727 32.1643 24.6517 32.23 24.6328 32.3021C24.5887 32.4706 24.5793 32.5967 24.6122 32.7146L24.6202 32.7153C24.6507 32.7177 24.6928 32.7173 24.7487 32.7115C24.975 32.688 25.2584 32.599 25.6008 32.4914L25.6009 32.4914L25.7002 32.4602C25.8804 32.4038 26.0738 32.3452 26.2569 32.304C26.4343 32.2642 26.6408 32.2314 26.8396 32.2495C27.0462 32.2684 27.3062 32.3503 27.4795 32.599C27.6409 32.8304 27.655 33.1064 27.6252 33.3464C27.5614 33.8616 27.4889 34.2737 27.4339 34.587C27.4211 34.6599 27.4092 34.7275 27.3986 34.7897C27.3792 34.9033 27.3651 34.9935 27.356 35.0666C27.5088 35.0579 27.7159 35.032 28.0132 34.9949L28.0136 34.9948C28.104 34.9835 28.2028 34.9712 28.3109 34.9579C30.2102 34.7257 31.3349 35.9175 31.6728 36.5916C31.7966 36.8384 31.6968 37.1389 31.4499 37.2626C31.2031 37.3864 30.9026 37.2866 30.7789 37.0397C30.5782 36.6394 29.8071 35.7824 28.4323 35.9505C28.3422 35.9616 28.2551 35.9725 28.1711 35.9831L28.1711 35.9831C27.8039 36.0292 27.4982 36.0676 27.2756 36.0697C27.1372 36.071 26.9645 36.0609 26.8027 35.9922C26.6089 35.9099 26.4667 35.7593 26.3963 35.5607C26.3378 35.3953 26.3393 35.224 26.3488 35.0918C26.3588 34.9518 26.3839 34.7911 26.4128 34.6218C26.4244 34.5538 26.4369 34.4822 26.4502 34.4065L26.4502 34.4064C26.5041 34.0998 26.5698 33.7256 26.6293 33.2515C26.588 33.257 26.5373 33.266 26.476 33.2797C26.3373 33.3109 26.179 33.3582 25.9989 33.4146L25.8893 33.4491L25.8893 33.4491L25.8893 33.4491L25.8893 33.4492C25.5729 33.5492 25.1865 33.6715 24.852 33.7062C24.6611 33.726 24.4294 33.7252 24.2098 33.638C23.9651 33.5408 23.7756 33.3515 23.6805 33.0828C23.5392 32.6839 23.5941 32.3216 23.6654 32.0491C23.6916 31.9486 23.7242 31.8467 23.7506 31.7644L23.7506 31.7643L23.7506 31.7642L23.7716 31.6982C23.8036 31.5959 23.8192 31.5344 23.8247 31.4899L23.8251 31.4865L23.8206 31.4834C23.7216 31.4175 23.4598 31.3187 22.8477 31.2428C22.5736 31.2089 22.379 30.9592 22.413 30.6851ZM30.7436 24.1861C30.5065 24.3277 30.4291 24.6347 30.5708 24.8718C30.7124 25.1088 31.0193 25.1862 31.2564 25.0446C31.7859 24.7283 32.0532 24.6454 32.1718 24.6365L32.1772 24.6362L32.179 24.6391C32.202 24.6776 32.2275 24.7357 32.2651 24.8361L32.2891 24.901L32.2892 24.9012L32.2892 24.9012L32.2893 24.9016C32.3191 24.9826 32.356 25.0829 32.3969 25.1782C32.5082 25.437 32.6876 25.7565 33.0441 25.9844C33.2843 26.1379 33.5501 26.1708 33.8029 26.0971C34.0297 26.031 34.213 25.8892 34.3514 25.7563C34.5939 25.5233 34.8236 25.1895 35.0117 24.9161L35.0118 24.9161L35.0118 24.916L35.0118 24.916L35.077 24.8215C35.1844 24.6663 35.2802 24.5317 35.3706 24.4218C35.4104 24.3733 35.4449 24.3351 35.4741 24.3054C35.7186 24.716 35.8967 25.0517 36.0426 25.3267L36.0434 25.328C36.0791 25.3954 36.113 25.4592 36.1454 25.5195C36.2267 25.6708 36.3056 25.813 36.3837 25.9296C36.4575 26.0397 36.5615 26.1758 36.7093 26.2703C36.8869 26.3838 37.0916 26.4152 37.2951 26.361C37.465 26.3158 37.6075 26.2175 37.7158 26.1315C37.8902 25.9931 38.1077 25.7749 38.369 25.5129L38.369 25.5129L38.3691 25.5128L38.3695 25.5124L38.3716 25.5103C38.4305 25.4512 38.4917 25.3898 38.5551 25.3267C39.5364 24.3492 40.6713 24.5514 41.0756 24.7439C41.325 24.8626 41.6233 24.7568 41.742 24.5074C41.8607 24.2581 41.7548 23.9597 41.5055 23.841C40.8247 23.5169 39.205 23.2679 37.8494 24.6182C37.7735 24.6938 37.7042 24.7632 37.6407 24.8268L37.6381 24.8294L37.6375 24.83C37.4256 25.0422 37.2781 25.1899 37.1628 25.2907C37.1251 25.2275 37.0808 25.1477 37.0263 25.0462C36.9965 24.9907 36.9644 24.9303 36.9299 24.8652L36.9295 24.8646L36.9295 24.8645C36.7804 24.5835 36.5843 24.2139 36.3181 23.7683C36.1941 23.5607 36.0134 23.3516 35.7439 23.2681C35.4543 23.1785 35.1989 23.2736 35.0243 23.3857C34.8563 23.4935 34.7135 23.6464 34.5981 23.7868C34.4789 23.9317 34.3624 24.0968 34.2549 24.2521L34.1957 24.3377C33.9917 24.633 33.8228 24.8774 33.6587 25.0351C33.6182 25.074 33.5851 25.1002 33.5596 25.117L33.5529 25.1214C33.4544 25.0486 33.3844 24.9433 33.3157 24.7833C33.2863 24.7149 33.2625 24.6502 33.2348 24.575L33.2348 24.5749L33.2347 24.5748C33.2283 24.5573 33.2216 24.5392 33.2147 24.5204C33.2104 24.5089 33.206 24.4972 33.2015 24.4851C33.1625 24.381 33.1106 24.2487 33.0375 24.1263C32.9617 23.9994 32.849 23.8584 32.6746 23.7589C32.4962 23.657 32.2983 23.6242 32.0971 23.6393C31.7279 23.667 31.2872 23.8614 30.7436 24.1861Z" fill="#626262"/>
</svg>
