<svg width="24" height="24" viewBox="0 0 24 24" fill="none" xmlns="http://www.w3.org/2000/svg">
<path d="M5.11499 15.4313V18.3068C5.99338 19.3839 7.10072 20.2518 8.35654 20.8474C9.61235 21.443 10.9851 21.7514 12.375 21.75C15.618 21.75 18.477 20.103 20.16 17.6003V13.5698C19.584 17.352 16.3177 20.25 12.375 20.25C9.10949 20.25 6.30824 18.2625 5.11499 15.4313ZM18.7725 7.78201V6.49051C18.7703 6.20567 18.817 5.92256 18.9105 5.65351C17.1623 3.94917 14.8165 2.99673 12.375 3.00001C10.1901 2.99677 8.07331 3.75979 6.39299 5.15626L6.39674 5.20201L6.39749 5.22226V7.24726C7.13609 6.38453 8.05294 5.69218 9.08487 5.21791C10.1168 4.74363 11.2393 4.49871 12.375 4.50001C15.0105 4.50001 17.343 5.79451 18.7725 7.78201Z" fill="white"/>
<path d="M18.375 12.375C18.375 13.9663 17.7429 15.4924 16.6176 16.6176C15.4924 17.7429 13.9663 18.375 12.375 18.375C10.7837 18.375 9.25758 17.7429 8.13236 16.6176C7.00714 15.4924 6.375 13.9663 6.375 12.375C6.375 10.7837 7.00714 9.25758 8.13236 8.13237C9.25758 7.00715 10.7837 6.37501 12.375 6.37501C13.9663 6.37501 15.4924 7.00715 16.6176 8.13237C17.7429 9.25758 18.375 10.7837 18.375 12.375ZM12.375 17.625C13.0644 17.625 13.7471 17.4892 14.3841 17.2254C15.021 16.9615 15.5998 16.5748 16.0873 16.0873C16.5748 15.5998 16.9615 15.0211 17.2254 14.3841C17.4892 13.7471 17.625 13.0644 17.625 12.375C17.625 11.6856 17.4892 11.0029 17.2254 10.3659C16.9615 9.72896 16.5748 9.1502 16.0873 8.6627C15.5998 8.17519 15.021 7.78848 14.3841 7.52464C13.7471 7.2608 13.0644 7.12501 12.375 7.12501C10.9826 7.12501 9.64726 7.67813 8.66269 8.6627C7.67812 9.64726 7.125 10.9826 7.125 12.375C7.125 13.7674 7.67812 15.1028 8.66269 16.0873C9.64726 17.0719 10.9826 17.625 12.375 17.625ZM22.4925 5.95501C22.4925 5.28001 21.945 4.73251 21.27 4.73251C20.295 4.73251 19.515 5.52001 19.5225 6.48751V10.65C19.5225 11.5898 20.067 12.4313 20.91 12.8123V19.275C20.91 19.665 21.225 19.98 21.615 19.98H21.7875C22.1775 19.98 22.4925 19.665 22.4925 19.275V5.95501ZM5.115 4.73251C4.97974 4.73251 4.85002 4.78624 4.75438 4.88188C4.65873 4.97753 4.605 5.10725 4.605 5.24251V7.26001C4.605 7.41001 4.485 7.52251 4.3425 7.52251C4.1925 7.52251 4.08 7.40251 4.08 7.26001V5.26501C4.08 4.98751 3.8625 4.74001 3.585 4.73251C3.2925 4.72501 3.0525 4.95751 3.0525 5.24251V7.26001C3.0525 7.41001 2.9325 7.52251 2.79 7.52251C2.64 7.52251 2.5275 7.40251 2.5275 7.26001V5.26501C2.5275 4.98751 2.31 4.74001 2.0325 4.73251C1.74 4.72501 1.5 4.95751 1.5 5.24251V8.67751C1.5 9.35401 1.82775 9.95776 2.33175 10.3343C2.7825 10.5885 2.7825 11.7525 2.7825 11.7525V19.2675C2.7825 19.6575 3.0975 19.9725 3.4875 19.9725H3.66C4.05 19.9725 4.365 19.6575 4.365 19.2675V11.7525C4.365 11.7525 4.365 10.6343 4.81575 10.3343C5.07376 10.1419 5.2833 9.89194 5.42769 9.60432C5.57209 9.3167 5.64736 8.99934 5.6475 8.67751V5.24251C5.63991 5.10584 5.58069 4.97715 5.48184 4.88248C5.38299 4.7878 5.25187 4.7342 5.115 4.73251Z" fill="white"/>
</svg>
