<svg width="32" height="32" viewBox="0 0 32 32" fill="none" xmlns="http://www.w3.org/2000/svg">
<path fill-rule="evenodd" clip-rule="evenodd" d="M8 0C3.58172 0 0 3.58172 0 8V24C0 28.4183 3.58172 32 8 32H24C28.4183 32 32 28.4183 32 24V8C32 3.58172 28.4183 0 24 0H8ZM10.25 9.25C10.25 8.69771 9.80229 8.25 9.25 8.25C8.69771 8.25 8.25 8.69771 8.25 9.25V21.25C8.25 21.913 8.51339 22.5489 8.98223 23.0178C9.45107 23.4866 10.087 23.75 10.75 23.75H22.75C23.3023 23.75 23.75 23.3023 23.75 22.75C23.75 22.1977 23.3023 21.75 22.75 21.75H10.75C10.6174 21.75 10.4902 21.6973 10.3964 21.6036C10.3027 21.5098 10.25 21.3826 10.25 21.25V9.25ZM20.3474 13.9884L18.25 16.0858L15.9571 13.7929C15.5666 13.4024 14.9334 13.4024 14.5429 13.7929L11.5429 16.7929C11.1524 17.1834 11.1524 17.8166 11.5429 18.2071C11.9334 18.5976 12.5666 18.5976 12.9571 18.2071L15.25 15.9142L17.5429 18.2071C17.9334 18.5976 18.5666 18.5976 18.9571 18.2071L21.7616 15.4026C21.8351 15.8825 22.2496 16.25 22.75 16.25C23.3023 16.25 23.75 15.8023 23.75 15.25V13.001C23.75 13.0007 23.75 13.0003 23.75 13C23.75 12.984 23.7496 12.968 23.7489 12.952C23.7374 12.7123 23.6402 12.476 23.4571 12.2929C23.3612 12.197 23.2507 12.1247 23.1328 12.0759C23.0157 12.0273 22.8875 12.0004 22.753 12C22.752 12 22.751 12 22.75 12H22.7493H20.5C19.9477 12 19.5 12.4477 19.5 13C19.5 13.5004 19.8675 13.9149 20.3474 13.9884Z" fill="#1D1E20"/>
</svg>
