<svg width="24" height="24" viewBox="0 0 24 24" fill="none" xmlns="http://www.w3.org/2000/svg">
<path d="M9.2 17L8.225 19.425C8.14167 19.6083 8.025 19.75 7.875 19.85C7.725 19.95 7.55833 20 7.375 20C7.04167 20 6.77933 19.8623 6.588 19.587C6.396 19.3123 6.36667 19.025 6.5 18.725L7.5 16.25C7.65 15.8667 7.89167 15.5623 8.225 15.337C8.55833 15.1123 8.93333 15 9.35 15H11V10.975C8.45 10.8917 6.31267 10.5167 4.588 9.85C2.86267 9.18333 2 8.4 2 7.5C2 6.53333 2.975 5.70833 4.925 5.025C6.875 4.34167 9.23333 4 12 4C14.7833 4 17.1457 4.34167 19.087 5.025C21.029 5.70833 22 6.53333 22 7.5C22 8.4 21.1377 9.18333 19.413 9.85C17.6877 10.5167 15.55 10.8917 13 10.975V15H14.65C15.05 15 15.421 15.1123 15.763 15.337C16.1043 15.5623 16.35 15.8667 16.5 16.25L17.5 18.725C17.5667 18.875 17.5873 19.025 17.562 19.175C17.5373 19.325 17.4833 19.4623 17.4 19.587C17.3167 19.7123 17.2083 19.8123 17.075 19.887C16.9417 19.9623 16.7917 20 16.625 20C16.4417 20 16.275 19.95 16.125 19.85C15.975 19.75 15.8583 19.6083 15.775 19.425L14.8 17H9.2Z" fill="#1D1E20"/>
</svg>
