<svg width="15" height="16" viewBox="0 0 15 16" fill="none" xmlns="http://www.w3.org/2000/svg">
<g clip-path="url(#clip0_9_25)">
<path d="M2.43684 1C2.19487 1 1.96282 1.10536 1.79172 1.29289C1.62063 1.48043 1.52451 1.73478 1.52451 2V3C1.52451 3.26522 1.62063 3.51957 1.79172 3.70711C1.96282 3.89464 2.19487 4 2.43684 4H2.893V13C2.893 13.5304 3.08525 14.0391 3.42744 14.4142C3.76963 14.7893 4.23374 15 4.71767 15H10.1917C10.6756 15 11.1397 14.7893 11.4819 14.4142C11.8241 14.0391 12.0163 13.5304 12.0163 13V4H12.4725C12.7145 4 12.9465 3.89464 13.1176 3.70711C13.2887 3.51957 13.3848 3.26522 13.3848 3V2C13.3848 1.73478 13.2887 1.48043 13.1176 1.29289C12.9465 1.10536 12.7145 1 12.4725 1H9.27933C9.27933 0.734784 9.18321 0.48043 9.01212 0.292893C8.84102 0.105357 8.60897 0 8.367 0L6.54234 0C6.30037 0 6.06831 0.105357 5.89722 0.292893C5.72612 0.48043 5.63 0.734784 5.63 1H2.43684ZM5.17384 5C5.29482 5 5.41085 5.05268 5.49639 5.14645C5.58194 5.24021 5.63 5.36739 5.63 5.5V12.5C5.63 12.6326 5.58194 12.7598 5.49639 12.8536C5.41085 12.9473 5.29482 13 5.17384 13C5.05285 13 4.93683 12.9473 4.85128 12.8536C4.76573 12.7598 4.71767 12.6326 4.71767 12.5V5.5C4.71767 5.36739 4.76573 5.24021 4.85128 5.14645C4.93683 5.05268 5.05285 5 5.17384 5ZM7.45467 5C7.57565 5 7.69168 5.05268 7.77723 5.14645C7.86278 5.24021 7.91083 5.36739 7.91083 5.5V12.5C7.91083 12.6326 7.86278 12.7598 7.77723 12.8536C7.69168 12.9473 7.57565 13 7.45467 13C7.33369 13 7.21766 12.9473 7.13211 12.8536C7.04656 12.7598 6.9985 12.6326 6.9985 12.5V5.5C6.9985 5.36739 7.04656 5.24021 7.13211 5.14645C7.21766 5.05268 7.33369 5 7.45467 5ZM10.1917 5.5V12.5C10.1917 12.6326 10.1436 12.7598 10.0581 12.8536C9.97251 12.9473 9.85648 13 9.7355 13C9.61452 13 9.49849 12.9473 9.41294 12.8536C9.32739 12.7598 9.27933 12.6326 9.27933 12.5V5.5C9.27933 5.36739 9.32739 5.24021 9.41294 5.14645C9.49849 5.05268 9.61452 5 9.7355 5C9.85648 5 9.97251 5.05268 10.0581 5.14645C10.1436 5.24021 10.1917 5.36739 10.1917 5.5Z" fill="#1D1E20"/>
</g>
<defs>
<clipPath id="clip0_9_25">
<rect width="14.5973" height="16" fill="white" transform="translate(0.156006)"/>
</clipPath>
</defs>
</svg>
