<svg width="401" height="175" viewBox="0 0 401 175" fill="none" xmlns="http://www.w3.org/2000/svg">
<path d="M19.552 8.976H48.112V16.896H30.16V21.456H45.52V29.04H30.16V34.08H48.448V42H19.552V8.976ZM87.1686 16.08C90.0486 16.08 92.2086 16.912 93.6486 18.576C95.0886 20.208 95.8086 22.544 95.8086 25.584V42H86.2566V26.736C86.2566 25.648 85.9846 24.784 85.4406 24.144C84.9286 23.472 84.1926 23.136 83.2326 23.136C82.1126 23.136 81.2006 23.52 80.4966 24.288C79.7926 25.056 79.4406 26 79.4406 27.12V42H69.8886V26.736C69.8886 25.648 69.6166 24.784 69.0726 24.144C68.5606 23.472 67.8246 23.136 66.8646 23.136C65.7446 23.136 64.8326 23.52 64.1286 24.288C63.4246 25.056 63.0726 26 63.0726 27.12V42H53.5206V16.656H61.3446L61.9686 20.448C62.9286 19.104 64.1926 18.048 65.7606 17.28C67.3606 16.48 69.0406 16.08 70.8006 16.08C74.6086 16.08 77.1686 17.536 78.4806 20.448C79.4726 19.104 80.7366 18.048 82.2726 17.28C83.8406 16.48 85.4726 16.08 87.1686 16.08ZM118.225 16.08C121.649 16.08 124.289 17.2 126.145 19.44C128.001 21.68 128.929 24.992 128.929 29.376C128.929 33.728 128.001 37.024 126.145 39.264C124.289 41.472 121.649 42.576 118.225 42.576C115.281 42.576 112.913 41.616 111.121 39.696V51.456H101.569V16.656H109.345L110.161 20.256C112.017 17.472 114.705 16.08 118.225 16.08ZM115.249 23.136C113.841 23.136 112.785 23.632 112.081 24.624C111.377 25.616 111.025 26.912 111.025 28.512V30.096C111.025 31.696 111.377 33.008 112.081 34.032C112.785 35.024 113.841 35.52 115.249 35.52C118.001 35.52 119.377 33.872 119.377 30.576V28.032C119.377 24.768 118.001 23.136 115.249 23.136ZM146.64 16.08C151.28 16.08 154.816 17.168 157.248 19.344C159.712 21.52 160.944 24.848 160.944 29.328V30.96H141.936C141.936 32.784 142.336 34.16 143.136 35.088C143.968 36.016 145.264 36.48 147.024 36.48C148.624 36.48 149.792 36.144 150.528 35.472C151.296 34.8 151.68 33.904 151.68 32.784H160.944C160.944 35.856 159.776 38.256 157.44 39.984C155.104 41.712 151.696 42.576 147.216 42.576C142.512 42.576 138.864 41.488 136.272 39.312C133.68 37.104 132.384 33.776 132.384 29.328C132.384 24.976 133.648 21.68 136.176 19.44C138.704 17.2 142.192 16.08 146.64 16.08ZM147.024 22.176C144.016 22.176 142.336 23.6 141.984 26.448H151.296C151.296 25.136 150.912 24.096 150.144 23.328C149.408 22.56 148.368 22.176 147.024 22.176ZM178.656 16.08C182.816 16.08 186.176 16.976 188.736 18.768C191.328 20.528 192.624 23.232 192.624 26.88H183.36C183.36 24 181.792 22.56 178.656 22.56C175.52 22.56 173.952 24.368 173.952 27.984V30.72C173.952 34.304 175.584 36.096 178.848 36.096C182.112 36.096 183.744 34.624 183.744 31.68H192.624C192.624 35.36 191.328 38.096 188.736 39.888C186.176 41.68 182.816 42.576 178.656 42.576C174.208 42.576 170.72 41.456 168.192 39.216C165.664 36.976 164.4 33.68 164.4 29.328C164.4 24.976 165.664 21.68 168.192 19.44C170.72 17.2 174.208 16.08 178.656 16.08ZM210.672 16.08C215.312 16.08 218.848 17.168 221.28 19.344C223.744 21.52 224.976 24.848 224.976 29.328V30.96H205.968C205.968 32.784 206.368 34.16 207.168 35.088C208 36.016 209.296 36.48 211.056 36.48C212.656 36.48 213.824 36.144 214.56 35.472C215.328 34.8 215.712 33.904 215.712 32.784H224.976C224.976 35.856 223.808 38.256 221.472 39.984C219.136 41.712 215.728 42.576 211.248 42.576C206.544 42.576 202.896 41.488 200.304 39.312C197.712 37.104 196.416 33.776 196.416 29.328C196.416 24.976 197.68 21.68 200.208 19.44C202.736 17.2 206.224 16.08 210.672 16.08ZM211.056 22.176C208.048 22.176 206.368 23.6 206.016 26.448H215.328C215.328 25.136 214.944 24.096 214.176 23.328C213.44 22.56 212.4 22.176 211.056 22.176ZM263.231 16.08C266.111 16.08 268.271 16.912 269.711 18.576C271.151 20.208 271.871 22.544 271.871 25.584V42H262.319V26.736C262.319 25.648 262.047 24.784 261.503 24.144C260.991 23.472 260.255 23.136 259.295 23.136C258.175 23.136 257.263 23.52 256.559 24.288C255.855 25.056 255.503 26 255.503 27.12V42H245.951V26.736C245.951 25.648 245.679 24.784 245.135 24.144C244.623 23.472 243.887 23.136 242.927 23.136C241.807 23.136 240.895 23.52 240.191 24.288C239.487 25.056 239.135 26 239.135 27.12V42H229.583V16.656H237.407L238.031 20.448C238.991 19.104 240.255 18.048 241.823 17.28C243.423 16.48 245.103 16.08 246.863 16.08C250.671 16.08 253.231 17.536 254.543 20.448C255.535 19.104 256.799 18.048 258.335 17.28C259.903 16.48 261.535 16.08 263.231 16.08ZM290.687 16.08C295.135 16.08 298.623 17.216 301.151 19.488C303.711 21.728 304.991 25.008 304.991 29.328C304.991 33.648 303.711 36.944 301.151 39.216C298.623 41.456 295.135 42.576 290.687 42.576C286.239 42.576 282.751 41.456 280.223 39.216C277.695 36.976 276.431 33.68 276.431 29.328C276.431 24.976 277.695 21.68 280.223 19.44C282.751 17.2 286.239 16.08 290.687 16.08ZM290.687 22.56C287.551 22.56 285.983 24.368 285.983 27.984V30.72C285.983 34.304 287.551 36.096 290.687 36.096C293.855 36.096 295.439 34.304 295.439 30.72V27.984C295.439 24.368 293.855 22.56 290.687 22.56ZM321.647 16.08C325.039 16.08 327.903 16.752 330.239 18.096C332.607 19.408 333.791 21.456 333.791 24.24H324.911C324.911 23.312 324.495 22.656 323.663 22.272C323.087 21.952 322.367 21.792 321.503 21.792C319.199 21.792 318.047 22.336 318.047 23.424C318.047 24.032 318.447 24.464 319.247 24.72C320.047 24.976 321.359 25.248 323.183 25.536C325.423 25.856 327.295 26.24 328.799 26.688C330.303 27.104 331.615 27.872 332.735 28.992C333.855 30.08 334.415 31.616 334.415 33.6C334.415 36.832 333.199 39.136 330.767 40.512C328.367 41.888 325.215 42.576 321.311 42.576C319.071 42.576 316.959 42.272 314.975 41.664C312.991 41.024 311.375 40.048 310.127 38.736C308.879 37.424 308.255 35.76 308.255 33.744H317.135V33.936C317.167 35.024 317.615 35.792 318.479 36.24C319.375 36.656 320.319 36.864 321.311 36.864C323.967 36.864 325.295 36.24 325.295 34.992C325.295 34.352 324.879 33.888 324.047 33.6C323.215 33.312 321.855 33.008 319.967 32.688C317.695 32.304 315.823 31.888 314.351 31.44C312.911 30.992 311.647 30.24 310.559 29.184C309.471 28.096 308.927 26.592 308.927 24.672C308.927 21.568 310.095 19.36 312.431 18.048C314.799 16.736 317.871 16.08 321.647 16.08ZM31.408 68.08C35.28 68.08 38.432 68.736 40.864 70.048C43.296 71.328 44.512 73.424 44.512 76.336V86.224C44.512 86.768 44.64 87.216 44.896 87.568C45.152 87.92 45.536 88.096 46.048 88.096H47.776V93.616C47.68 93.68 47.424 93.792 47.008 93.952C46.624 94.08 46.064 94.208 45.328 94.336C44.592 94.496 43.744 94.576 42.784 94.576C40.928 94.576 39.392 94.304 38.176 93.76C36.992 93.184 36.176 92.4 35.728 91.408C34.512 92.368 33.152 93.136 31.648 93.712C30.144 94.288 28.384 94.576 26.368 94.576C20.416 94.576 17.44 92.208 17.44 87.472C17.44 85.008 18.096 83.136 19.408 81.856C20.752 80.544 22.672 79.648 25.168 79.168C27.664 78.688 30.928 78.448 34.96 78.448V77.2C34.96 76.208 34.608 75.456 33.904 74.944C33.232 74.432 32.352 74.176 31.264 74.176C30.272 74.176 29.408 74.352 28.672 74.704C27.968 75.056 27.616 75.616 27.616 76.384V76.576H18.208C18.176 76.416 18.16 76.192 18.16 75.904C18.16 73.504 19.296 71.6 21.568 70.192C23.872 68.784 27.152 68.08 31.408 68.08ZM34.96 82.96C32.24 82.96 30.224 83.264 28.912 83.872C27.632 84.448 26.992 85.232 26.992 86.224C26.992 87.824 28.08 88.624 30.256 88.624C31.504 88.624 32.592 88.288 33.52 87.616C34.48 86.944 34.96 86.112 34.96 85.12V82.96ZM79.984 68.08C84.144 68.08 87.504 68.976 90.064 70.768C92.656 72.528 93.952 75.232 93.952 78.88H84.688C84.688 76 83.12 74.56 79.984 74.56C76.848 74.56 75.28 76.368 75.28 79.984V82.72C75.28 86.304 76.912 88.096 80.176 88.096C83.44 88.096 85.072 86.624 85.072 83.68H93.952C93.952 87.36 92.656 90.096 90.064 91.888C87.504 93.68 84.144 94.576 79.984 94.576C75.536 94.576 72.048 93.456 69.52 91.216C66.992 88.976 65.728 85.68 65.728 81.328C65.728 76.976 66.992 73.68 69.52 71.44C72.048 69.2 75.536 68.08 79.984 68.08ZM114.304 68.032C115.04 68.032 115.696 68.128 116.272 68.32C116.848 68.48 117.136 68.576 117.136 68.608V76.624H114.064C112.08 76.624 110.64 77.136 109.744 78.16C108.88 79.184 108.448 80.704 108.448 82.72V94H98.8956V68.656H106.72L107.344 72.496C107.92 71.024 108.832 69.92 110.08 69.184C111.328 68.416 112.736 68.032 114.304 68.032ZM134.078 68.08C138.718 68.08 142.254 69.168 144.686 71.344C147.15 73.52 148.382 76.848 148.382 81.328V82.96H129.374C129.374 84.784 129.774 86.16 130.574 87.088C131.406 88.016 132.702 88.48 134.462 88.48C136.062 88.48 137.23 88.144 137.966 87.472C138.734 86.8 139.118 85.904 139.118 84.784H148.382C148.382 87.856 147.214 90.256 144.878 91.984C142.542 93.712 139.134 94.576 134.654 94.576C129.95 94.576 126.302 93.488 123.71 91.312C121.118 89.104 119.822 85.776 119.822 81.328C119.822 76.976 121.086 73.68 123.614 71.44C126.142 69.2 129.63 68.08 134.078 68.08ZM134.462 74.176C131.454 74.176 129.774 75.6 129.422 78.448H138.734C138.734 77.136 138.35 76.096 137.582 75.328C136.846 74.56 135.806 74.176 134.462 74.176ZM165.517 68.08C169.389 68.08 172.541 68.736 174.973 70.048C177.405 71.328 178.621 73.424 178.621 76.336V86.224C178.621 86.768 178.749 87.216 179.005 87.568C179.261 87.92 179.645 88.096 180.157 88.096H181.885V93.616C181.789 93.68 181.533 93.792 181.117 93.952C180.733 94.08 180.173 94.208 179.437 94.336C178.701 94.496 177.853 94.576 176.893 94.576C175.037 94.576 173.501 94.304 172.285 93.76C171.101 93.184 170.285 92.4 169.837 91.408C168.621 92.368 167.261 93.136 165.757 93.712C164.253 94.288 162.493 94.576 160.477 94.576C154.525 94.576 151.549 92.208 151.549 87.472C151.549 85.008 152.205 83.136 153.517 81.856C154.861 80.544 156.781 79.648 159.277 79.168C161.773 78.688 165.037 78.448 169.069 78.448V77.2C169.069 76.208 168.717 75.456 168.013 74.944C167.341 74.432 166.461 74.176 165.373 74.176C164.381 74.176 163.517 74.352 162.781 74.704C162.077 75.056 161.725 75.616 161.725 76.384V76.576H152.317C152.285 76.416 152.269 76.192 152.269 75.904C152.269 73.504 153.405 71.6 155.677 70.192C157.981 68.784 161.261 68.08 165.517 68.08ZM169.069 82.96C166.349 82.96 164.333 83.264 163.021 83.872C161.741 84.448 161.101 85.232 161.101 86.224C161.101 87.824 162.189 88.624 164.365 88.624C165.613 88.624 166.701 88.288 167.629 87.616C168.589 86.944 169.069 86.112 169.069 85.12V82.96ZM200.413 68.032C201.149 68.032 201.805 68.128 202.381 68.32C202.957 68.48 203.245 68.576 203.245 68.608V76.624H200.173C198.189 76.624 196.749 77.136 195.853 78.16C194.989 79.184 194.557 80.704 194.557 82.72V94H185.005V68.656H192.829L193.453 72.496C194.029 71.024 194.941 69.92 196.189 69.184C197.437 68.416 198.845 68.032 200.413 68.032ZM234.846 68.08C238.718 68.08 241.87 68.736 244.302 70.048C246.734 71.328 247.95 73.424 247.95 76.336V86.224C247.95 86.768 248.078 87.216 248.334 87.568C248.59 87.92 248.974 88.096 249.486 88.096H251.214V93.616C251.118 93.68 250.862 93.792 250.446 93.952C250.062 94.08 249.502 94.208 248.766 94.336C248.03 94.496 247.182 94.576 246.222 94.576C244.366 94.576 242.83 94.304 241.614 93.76C240.43 93.184 239.614 92.4 239.166 91.408C237.95 92.368 236.59 93.136 235.086 93.712C233.582 94.288 231.822 94.576 229.806 94.576C223.854 94.576 220.878 92.208 220.878 87.472C220.878 85.008 221.534 83.136 222.846 81.856C224.19 80.544 226.11 79.648 228.606 79.168C231.102 78.688 234.366 78.448 238.398 78.448V77.2C238.398 76.208 238.046 75.456 237.342 74.944C236.67 74.432 235.79 74.176 234.702 74.176C233.71 74.176 232.845 74.352 232.109 74.704C231.406 75.056 231.054 75.616 231.054 76.384V76.576H221.646C221.614 76.416 221.598 76.192 221.598 75.904C221.598 73.504 222.734 71.6 225.006 70.192C227.31 68.784 230.59 68.08 234.846 68.08ZM238.398 82.96C235.678 82.96 233.662 83.264 232.35 83.872C231.07 84.448 230.43 85.232 230.43 86.224C230.43 87.824 231.518 88.624 233.694 88.624C234.942 88.624 236.03 88.288 236.958 87.616C237.918 86.944 238.398 86.112 238.398 85.12V82.96ZM254.669 94V59.2H264.221V94H254.669ZM298.83 63.904C298.83 65.856 298.334 67.36 297.342 68.416C296.382 69.472 294.926 70.256 292.974 70.768C293.902 71.472 294.622 72.304 295.134 73.264C295.678 74.192 295.95 75.184 295.95 76.24C295.95 78.928 294.926 80.96 292.878 82.336C290.862 83.712 288.334 84.4 285.294 84.4H281.646C279.63 84.4 278.622 84.864 278.622 85.792C278.622 86.24 278.846 86.608 279.294 86.896C279.742 87.152 280.526 87.28 281.646 87.28H290.286C293.102 87.28 295.23 88.016 296.67 89.488C298.11 90.96 298.83 92.928 298.83 95.392C298.83 97.216 298.35 98.784 297.39 100.096C296.43 101.408 295.134 102.4 293.502 103.072C291.87 103.744 290.094 104.08 288.174 104.08H274.062C272.91 104.08 271.838 103.808 270.846 103.264C269.886 102.72 269.118 101.968 268.542 101.008C267.966 100.08 267.678 99.04 267.678 97.888C267.678 96.64 268.062 95.504 268.83 94.48C269.598 93.488 270.558 92.736 271.71 92.224C270.942 91.68 270.334 91.024 269.886 90.256C269.438 89.488 269.214 88.656 269.214 87.76C269.214 86.512 269.678 85.392 270.605 84.4C271.534 83.376 272.686 82.688 274.062 82.336C272.814 81.536 271.822 80.624 271.086 79.6C270.35 78.544 269.982 77.44 269.982 76.288C269.982 73.344 271.166 71.248 273.534 70C275.934 68.72 279.102 68.08 283.038 68.08C284.766 68.08 286.158 68.176 287.214 68.368C288.782 67.376 289.79 66.48 290.238 65.68C290.718 64.848 290.958 64.256 290.958 63.904H298.83ZM282.942 73.072C281.886 73.072 281.022 73.344 280.35 73.888C279.678 74.432 279.342 75.216 279.342 76.24C279.342 77.296 279.646 78.096 280.254 78.64C280.894 79.152 281.79 79.408 282.942 79.408C284.094 79.408 284.99 79.152 285.63 78.64C286.302 78.096 286.638 77.296 286.638 76.24C286.638 75.184 286.302 74.4 285.63 73.888C284.99 73.344 284.094 73.072 282.942 73.072ZM279.246 94C278.51 94 277.902 94.192 277.422 94.576C276.974 94.992 276.75 95.568 276.75 96.304C276.75 97.04 276.99 97.632 277.47 98.08C277.95 98.528 278.542 98.752 279.246 98.752H286.734C287.438 98.752 288.03 98.528 288.51 98.08C289.022 97.664 289.278 97.088 289.278 96.352C289.278 95.616 289.038 95.04 288.558 94.624C288.078 94.208 287.47 94 286.734 94H279.246ZM315.437 68.08C319.885 68.08 323.373 69.216 325.901 71.488C328.461 73.728 329.741 77.008 329.741 81.328C329.741 85.648 328.461 88.944 325.901 91.216C323.373 93.456 319.885 94.576 315.437 94.576C310.989 94.576 307.501 93.456 304.973 91.216C302.445 88.976 301.181 85.68 301.181 81.328C301.181 76.976 302.445 73.68 304.973 71.44C307.501 69.2 310.989 68.08 315.437 68.08ZM315.437 74.56C312.301 74.56 310.733 76.368 310.733 79.984V82.72C310.733 86.304 312.301 88.096 315.437 88.096C318.605 88.096 320.189 86.304 320.189 82.72V79.984C320.189 76.368 318.605 74.56 315.437 74.56Z" fill="url(#paint0_linear_144_5)"/>
<g filter="url(#filter0_d_144_5)">
<path d="M46.856 115.096C48.8667 115.096 50.7033 115.521 52.366 116.372C54.0673 117.184 55.4013 118.344 56.368 119.852C57.3733 121.36 57.876 123.042 57.876 124.898C57.876 129.809 55.6527 132.902 51.206 134.178V134.41C56.2713 135.57 58.804 138.895 58.804 144.386C58.804 146.474 58.282 148.33 57.238 149.954C56.2327 151.539 54.8407 152.777 53.062 153.666C51.2833 154.555 49.3307 155 47.204 155H20.292V115.096H46.856ZM33.11 130.64H41.926C42.7767 130.64 43.4727 130.35 44.014 129.77C44.594 129.151 44.884 128.397 44.884 127.508V126.928C44.884 126.077 44.594 125.362 44.014 124.782C43.434 124.163 42.738 123.854 41.926 123.854H33.11V130.64ZM33.11 145.72H42.854C43.7047 145.72 44.4007 145.43 44.942 144.85C45.522 144.231 45.812 143.477 45.812 142.588V142.008C45.812 141.119 45.522 140.384 44.942 139.804C44.4007 139.185 43.7047 138.876 42.854 138.876H33.11V145.72ZM103.309 127.334C103.309 129.77 102.651 131.974 101.337 133.946C100.022 135.918 98.1079 137.368 95.5946 138.296L104.469 155H90.0846L83.0086 140.442H78.2526V155H65.4346V115.096H89.8526C92.7139 115.096 95.1499 115.657 97.1606 116.778C99.2099 117.861 100.737 119.349 101.743 121.244C102.787 123.1 103.309 125.13 103.309 127.334ZM90.2586 127.856C90.2586 126.812 89.9106 125.942 89.2146 125.246C88.5186 124.55 87.6679 124.202 86.6626 124.202H78.2526V131.568H86.6626C87.6679 131.568 88.5186 131.22 89.2146 130.524C89.9106 129.789 90.2586 128.9 90.2586 127.856ZM111.157 155V115.096H123.975V155H111.157ZM133.12 115.096H145.938V144.792H166.412V155H133.12V115.096ZM171.806 115.096H184.624V144.792H205.098V155H171.806V115.096ZM237.229 155L235.547 149.374H221.569L219.887 155H206.779L221.337 115.096H236.243L250.801 155H237.229ZM224.237 140.442H232.879L228.703 126.232H228.471L224.237 140.442ZM284.17 155L267.408 135.628V155H255.634V115.096H266.828L283.59 134.758V115.096H295.364V155H284.17ZM326.916 125.304V155H314.098V125.304H300.99V115.096H339.966V125.304H326.916ZM345.806 115.096H380.316V124.666H358.624V130.176H377.184V139.34H358.624V145.43H380.722V155H345.806V115.096Z" fill="white"/>
</g>
<defs>
<filter id="filter0_d_144_5" x="0.291992" y="95.096" width="400.43" height="79.904" filterUnits="userSpaceOnUse" color-interpolation-filters="sRGB">
<feFlood flood-opacity="0" result="BackgroundImageFix"/>
<feColorMatrix in="SourceAlpha" type="matrix" values="0 0 0 0 0 0 0 0 0 0 0 0 0 0 0 0 0 0 127 0" result="hardAlpha"/>
<feOffset/>
<feGaussianBlur stdDeviation="10"/>
<feComposite in2="hardAlpha" operator="out"/>
<feColorMatrix type="matrix" values="0 0 0 0 0.770221 0 0 0 0 0.775 0 0 0 0 0.536042 0 0 0 1 0"/>
<feBlend mode="normal" in2="BackgroundImageFix" result="effect1_dropShadow_144_5"/>
<feBlend mode="normal" in="SourceGraphic" in2="effect1_dropShadow_144_5" result="shape"/>
</filter>
<linearGradient id="paint0_linear_144_5" x1="16" y1="14.3333" x2="367.48" y2="14.3333" gradientUnits="userSpaceOnUse">
<stop stop-color="white"/>
<stop offset="1" stop-color="#555555"/>
</linearGradient>
</defs>
</svg>
