<svg width="580" height="357" viewBox="0 0 580 357" fill="none" xmlns="http://www.w3.org/2000/svg">
<path d="M27.2955 14.8409C27.1136 13.0076 26.3333 11.5833 24.9545 10.5682C23.5758 9.55303 21.7045 9.04545 19.3409 9.04545C17.7348 9.04545 16.3788 9.27273 15.2727 9.72727C14.1667 10.1667 13.3182 10.7803 12.7273 11.5682C12.1515 12.3561 11.8636 13.25 11.8636 14.25C11.8333 15.0833 12.0076 15.8106 12.3864 16.4318C12.7803 17.053 13.3182 17.5909 14 18.0455C14.6818 18.4848 15.4697 18.8712 16.3636 19.2045C17.2576 19.5227 18.2121 19.7955 19.2273 20.0227L23.4091 21.0227C25.4394 21.4773 27.303 22.0833 29 22.8409C30.697 23.5985 32.1667 24.5303 33.4091 25.6364C34.6515 26.7424 35.6136 28.0455 36.2955 29.5455C36.9924 31.0455 37.3485 32.7652 37.3636 34.7045C37.3485 37.553 36.6212 40.0227 35.1818 42.1136C33.7576 44.1894 31.697 45.803 29 46.9545C26.3182 48.0909 23.0833 48.6591 19.2955 48.6591C15.5379 48.6591 12.2652 48.0833 9.47727 46.9318C6.70455 45.7803 4.53788 44.0758 2.97727 41.8182C1.43182 39.5455 0.621212 36.7348 0.545455 33.3864H10.0682C10.1742 34.947 10.6212 36.25 11.4091 37.2955C12.2121 38.3258 13.2803 39.1061 14.6136 39.6364C15.9621 40.1515 17.4848 40.4091 19.1818 40.4091C20.8485 40.4091 22.2955 40.1667 23.5227 39.6818C24.7652 39.197 25.7273 38.5227 26.4091 37.6591C27.0909 36.7955 27.4318 35.803 27.4318 34.6818C27.4318 33.6364 27.1212 32.7576 26.5 32.0455C25.8939 31.3333 25 30.7273 23.8182 30.2273C22.6515 29.7273 21.2197 29.2727 19.5227 28.8636L14.4545 27.5909C10.5303 26.6364 7.43182 25.1439 5.15909 23.1136C2.88636 21.0833 1.75758 18.3485 1.77273 14.9091C1.75758 12.0909 2.50758 9.62879 4.02273 7.52273C5.55303 5.41667 7.65152 3.77273 10.3182 2.59091C12.9848 1.40909 16.0152 0.81818 19.4091 0.81818C22.8636 0.81818 25.8788 1.40909 28.4545 2.59091C31.0455 3.77273 33.0606 5.41667 34.5 7.52273C35.9394 9.62879 36.6818 12.0682 36.7273 14.8409H27.2955ZM50.9432 48H40.3977L56.4659 1.45454H69.1477L85.1932 48H74.6477L62.9886 12.0909H62.625L50.9432 48ZM50.2841 29.7045H75.1932V37.3864H50.2841V29.7045ZM90.7955 48V1.45454H100.636V39.8864H120.591V48H90.7955ZM156.159 16.5C155.841 15.3939 155.394 14.4167 154.818 13.5682C154.242 12.7045 153.538 11.9773 152.705 11.3864C151.886 10.7803 150.947 10.3182 149.886 10C148.841 9.68182 147.682 9.52273 146.409 9.52273C144.03 9.52273 141.939 10.1136 140.136 11.2955C138.348 12.4773 136.955 14.197 135.955 16.4545C134.955 18.697 134.455 21.4394 134.455 24.6818C134.455 27.9242 134.947 30.6818 135.932 32.9545C136.917 35.2273 138.311 36.9621 140.114 38.1591C141.917 39.3409 144.045 39.9318 146.5 39.9318C148.727 39.9318 150.629 39.5379 152.205 38.75C153.795 37.947 155.008 36.8182 155.841 35.3636C156.689 33.9091 157.114 32.1894 157.114 30.2045L159.114 30.5H147.114V23.0909H166.591V28.9545C166.591 33.0455 165.727 36.5606 164 39.5C162.273 42.4242 159.894 44.6818 156.864 46.2727C153.833 47.8485 150.364 48.6364 146.455 48.6364C142.091 48.6364 138.258 47.6742 134.955 45.75C131.652 43.8106 129.076 41.0606 127.227 37.5C125.394 33.9242 124.477 29.6818 124.477 24.7727C124.477 21 125.023 17.6364 126.114 14.6818C127.22 11.7121 128.765 9.19697 130.75 7.13636C132.735 5.07576 135.045 3.50757 137.682 2.43182C140.318 1.35606 143.174 0.81818 146.25 0.81818C148.886 0.81818 151.341 1.20454 153.614 1.97727C155.886 2.73485 157.902 3.81061 159.659 5.20454C161.432 6.59848 162.879 8.25757 164 10.1818C165.121 12.0909 165.841 14.197 166.159 16.5H156.159ZM180.568 48H170.023L186.091 1.45454H198.773L214.818 48H204.273L192.614 12.0909H192.25L180.568 48ZM179.909 29.7045H204.818V37.3864H179.909V29.7045ZM243.256 48H232.71L248.778 1.45454H261.46L277.506 48H266.96L255.301 12.0909H254.938L243.256 48ZM242.597 29.7045H267.506V37.3864H242.597V29.7045ZM297.92 48V1.45454H307.761V39.8864H327.716V48H297.92ZM343.443 48H332.898L348.966 1.45454H361.648L377.693 48H367.148L355.489 12.0909H355.125L343.443 48ZM342.784 29.7045H367.693V37.3864H342.784V29.7045ZM398.108 48V1.45454H407.949V39.8864H427.903V48H398.108ZM463.17 1.45454H473.011V31.6818C473.011 35.0758 472.201 38.0455 470.58 40.5909C468.973 43.1364 466.723 45.1212 463.83 46.5455C460.936 47.9545 457.564 48.6591 453.716 48.6591C449.852 48.6591 446.473 47.9545 443.58 46.5455C440.686 45.1212 438.436 43.1364 436.83 40.5909C435.223 38.0455 434.42 35.0758 434.42 31.6818V1.45454H444.261V30.8409C444.261 32.6136 444.648 34.1894 445.42 35.5682C446.208 36.947 447.314 38.0303 448.739 38.8182C450.163 39.6061 451.822 40 453.716 40C455.625 40 457.284 39.6061 458.693 38.8182C460.117 38.0303 461.216 36.947 461.989 35.5682C462.777 34.1894 463.17 32.6136 463.17 30.8409V1.45454ZM480.608 48V42.1591L503.835 9.56818H480.562V1.45454H516.199V7.29545L492.949 39.8864H516.244V48H480.608ZM535.881 1.45454H546.903L557.517 21.5H557.972L568.585 1.45454H579.608L562.631 31.5455V48H552.858V31.5455L535.881 1.45454ZM2.04545 78.4545H14.1818L27 109.727H27.5455L40.3636 78.4545H52.5V125H42.9545V94.7045H42.5682L30.5227 124.773H24.0227L11.9773 94.5909H11.5909V125H2.04545V78.4545ZM89.358 78.4545H99.1989V108.682C99.1989 112.076 98.3883 115.045 96.767 117.591C95.161 120.136 92.911 122.121 90.017 123.545C87.1231 124.955 83.7519 125.659 79.9034 125.659C76.0398 125.659 72.661 124.955 69.767 123.545C66.8731 122.121 64.6231 120.136 63.017 117.591C61.411 115.045 60.608 112.076 60.608 108.682V78.4545H70.4489V107.841C70.4489 109.614 70.8352 111.189 71.608 112.568C72.3958 113.947 73.5019 115.03 74.9261 115.818C76.3504 116.606 78.0095 117 79.9034 117C81.8125 117 83.4716 116.606 84.8807 115.818C86.3049 115.03 87.4034 113.947 88.1761 112.568C88.964 111.189 89.358 109.614 89.358 107.841V78.4545ZM107.295 125V78.4545H138.659V86.5682H117.136V97.6591H137.045V105.773H117.136V116.886H138.75V125H107.295ZM119.568 73.9545L124.386 63.6136H133.341L126.409 73.9545H119.568ZM171.733 91.8409C171.551 90.0076 170.771 88.5833 169.392 87.5682C168.013 86.553 166.142 86.0455 163.778 86.0455C162.172 86.0455 160.816 86.2727 159.71 86.7273C158.604 87.1667 157.756 87.7803 157.165 88.5682C156.589 89.3561 156.301 90.25 156.301 91.25C156.271 92.0833 156.445 92.8106 156.824 93.4318C157.218 94.053 157.756 94.5909 158.438 95.0455C159.119 95.4848 159.907 95.8712 160.801 96.2045C161.695 96.5227 162.65 96.7955 163.665 97.0227L167.847 98.0227C169.877 98.4773 171.741 99.0833 173.438 99.8409C175.134 100.598 176.604 101.53 177.847 102.636C179.089 103.742 180.051 105.045 180.733 106.545C181.43 108.045 181.786 109.765 181.801 111.705C181.786 114.553 181.059 117.023 179.619 119.114C178.195 121.189 176.134 122.803 173.438 123.955C170.756 125.091 167.521 125.659 163.733 125.659C159.975 125.659 156.703 125.083 153.915 123.932C151.142 122.78 148.975 121.076 147.415 118.818C145.869 116.545 145.059 113.735 144.983 110.386H154.506C154.612 111.947 155.059 113.25 155.847 114.295C156.65 115.326 157.718 116.106 159.051 116.636C160.4 117.152 161.922 117.409 163.619 117.409C165.286 117.409 166.733 117.167 167.96 116.682C169.203 116.197 170.165 115.523 170.847 114.659C171.528 113.795 171.869 112.803 171.869 111.682C171.869 110.636 171.559 109.758 170.938 109.045C170.331 108.333 169.438 107.727 168.256 107.227C167.089 106.727 165.657 106.273 163.96 105.864L158.892 104.591C154.968 103.636 151.869 102.144 149.597 100.114C147.324 98.0833 146.195 95.3485 146.21 91.9091C146.195 89.0909 146.945 86.6288 148.46 84.5227C149.991 82.4167 152.089 80.7727 154.756 79.5909C157.422 78.4091 160.453 77.8182 163.847 77.8182C167.301 77.8182 170.316 78.4091 172.892 79.5909C175.483 80.7727 177.498 82.4167 178.938 84.5227C180.377 86.6288 181.119 89.0682 181.165 91.8409H171.733ZM186.648 86.5682V78.4545H224.875V86.5682H210.625V125H200.898V86.5682H186.648ZM231.17 125V78.4545H249.534C253.049 78.4545 256.049 79.0833 258.534 80.3409C261.034 81.5833 262.936 83.3485 264.239 85.6364C265.557 87.9091 266.216 90.5833 266.216 93.6591C266.216 96.75 265.549 99.4091 264.216 101.636C262.883 103.848 260.951 105.545 258.42 106.727C255.905 107.909 252.86 108.5 249.284 108.5H236.989V100.591H247.693C249.572 100.591 251.133 100.333 252.375 99.8182C253.617 99.303 254.542 98.5303 255.148 97.5C255.769 96.4697 256.08 95.1894 256.08 93.6591C256.08 92.1136 255.769 90.8106 255.148 89.75C254.542 88.6894 253.61 87.8864 252.352 87.3409C251.11 86.7803 249.542 86.5 247.648 86.5H241.011V125H231.17ZM256.307 103.818L267.875 125H257.011L245.693 103.818H256.307ZM273.17 125V78.4545H304.534V86.5682H283.011V97.6591H302.92V105.773H283.011V116.886H304.625V125H273.17ZM337.608 91.8409C337.426 90.0076 336.646 88.5833 335.267 87.5682C333.888 86.553 332.017 86.0455 329.653 86.0455C328.047 86.0455 326.691 86.2727 325.585 86.7273C324.479 87.1667 323.631 87.7803 323.04 88.5682C322.464 89.3561 322.176 90.25 322.176 91.25C322.146 92.0833 322.32 92.8106 322.699 93.4318C323.093 94.053 323.631 94.5909 324.312 95.0455C324.994 95.4848 325.782 95.8712 326.676 96.2045C327.57 96.5227 328.525 96.7955 329.54 97.0227L333.722 98.0227C335.752 98.4773 337.616 99.0833 339.312 99.8409C341.009 100.598 342.479 101.53 343.722 102.636C344.964 103.742 345.926 105.045 346.608 106.545C347.305 108.045 347.661 109.765 347.676 111.705C347.661 114.553 346.934 117.023 345.494 119.114C344.07 121.189 342.009 122.803 339.312 123.955C336.631 125.091 333.396 125.659 329.608 125.659C325.85 125.659 322.578 125.083 319.79 123.932C317.017 122.78 314.85 121.076 313.29 118.818C311.744 116.545 310.934 113.735 310.858 110.386H320.381C320.487 111.947 320.934 113.25 321.722 114.295C322.525 115.326 323.593 116.106 324.926 116.636C326.275 117.152 327.797 117.409 329.494 117.409C331.161 117.409 332.608 117.167 333.835 116.682C335.078 116.197 336.04 115.523 336.722 114.659C337.403 113.795 337.744 112.803 337.744 111.682C337.744 110.636 337.434 109.758 336.812 109.045C336.206 108.333 335.313 107.727 334.131 107.227C332.964 106.727 331.532 106.273 329.835 105.864L324.767 104.591C320.843 103.636 317.744 102.144 315.472 100.114C313.199 98.0833 312.07 95.3485 312.085 91.9091C312.07 89.0909 312.82 86.6288 314.335 84.5227C315.866 82.4167 317.964 80.7727 320.631 79.5909C323.297 78.4091 326.328 77.8182 329.722 77.8182C333.176 77.8182 336.191 78.4091 338.767 79.5909C341.358 80.7727 343.373 82.4167 344.812 84.5227C346.252 86.6288 346.994 89.0682 347.04 91.8409H337.608ZM354.295 125V78.4545H385.659V86.5682H364.136V97.6591H384.045V105.773H364.136V116.886H385.75V125H354.295ZM408.295 125V78.4545H439.659V86.5682H418.136V97.6591H438.045V105.773H418.136V116.886H439.75V125H408.295ZM486.415 78.4545V125H477.915L457.665 95.7045H457.324V125H447.483V78.4545H456.119L476.21 107.727H476.619V78.4545H486.415ZM509.358 125V78.4545H540.722V86.5682H519.199V97.6591H539.108V105.773H519.199V116.886H540.812V125H509.358ZM548.545 125V78.4545H558.386V116.886H578.341V125H548.545ZM2.04545 155.455H14.1818L27 186.727H27.5455L40.3636 155.455H52.5V202H42.9545V171.705H42.5682L30.5227 201.773H24.0227L11.9773 171.591H11.5909V202H2.04545V155.455ZM89.358 155.455H99.1989V185.682C99.1989 189.076 98.3883 192.045 96.767 194.591C95.161 197.136 92.911 199.121 90.017 200.545C87.1231 201.955 83.7519 202.659 79.9034 202.659C76.0398 202.659 72.661 201.955 69.767 200.545C66.8731 199.121 64.6231 197.136 63.017 194.591C61.411 192.045 60.608 189.076 60.608 185.682V155.455H70.4489V184.841C70.4489 186.614 70.8352 188.189 71.608 189.568C72.3958 190.947 73.5019 192.03 74.9261 192.818C76.3504 193.606 78.0095 194 79.9034 194C81.8125 194 83.4716 193.606 84.8807 192.818C86.3049 192.03 87.4034 190.947 88.1761 189.568C88.964 188.189 89.358 186.614 89.358 184.841V155.455ZM146.227 155.455V202H137.727L117.477 172.705H117.136V202H107.295V155.455H115.932L136.023 184.727H136.432V155.455H146.227ZM170.858 202H154.358V155.455H170.994C175.676 155.455 179.706 156.386 183.085 158.25C186.464 160.098 189.063 162.758 190.881 166.227C192.714 169.697 193.631 173.848 193.631 178.682C193.631 183.53 192.714 187.697 190.881 191.182C189.063 194.667 186.449 197.341 183.04 199.205C179.646 201.068 175.585 202 170.858 202ZM164.199 193.568H170.449C173.358 193.568 175.805 193.053 177.79 192.023C179.79 190.977 181.29 189.364 182.29 187.182C183.305 184.985 183.812 182.152 183.812 178.682C183.812 175.242 183.305 172.432 182.29 170.25C181.29 168.068 179.797 166.462 177.812 165.432C175.828 164.402 173.381 163.886 170.472 163.886H164.199V193.568ZM243.693 178.727C243.693 183.803 242.731 188.121 240.807 191.682C238.898 195.242 236.292 197.962 232.989 199.841C229.701 201.705 226.004 202.636 221.898 202.636C217.761 202.636 214.049 201.697 210.761 199.818C207.473 197.939 204.875 195.22 202.966 191.659C201.057 188.098 200.102 183.788 200.102 178.727C200.102 173.652 201.057 169.333 202.966 165.773C204.875 162.212 207.473 159.5 210.761 157.636C214.049 155.758 217.761 154.818 221.898 154.818C226.004 154.818 229.701 155.758 232.989 157.636C236.292 159.5 238.898 162.212 240.807 165.773C242.731 169.333 243.693 173.652 243.693 178.727ZM233.716 178.727C233.716 175.439 233.223 172.667 232.239 170.409C231.269 168.152 229.898 166.439 228.125 165.273C226.352 164.106 224.277 163.523 221.898 163.523C219.519 163.523 217.443 164.106 215.67 165.273C213.898 166.439 212.519 168.152 211.534 170.409C210.564 172.667 210.08 175.439 210.08 178.727C210.08 182.015 210.564 184.788 211.534 187.045C212.519 189.303 213.898 191.015 215.67 192.182C217.443 193.348 219.519 193.932 221.898 193.932C224.277 193.932 226.352 193.348 228.125 192.182C229.898 191.015 231.269 189.303 232.239 187.045C233.223 184.788 233.716 182.015 233.716 178.727ZM282.295 202H265.795V155.455H282.432C287.114 155.455 291.144 156.386 294.523 158.25C297.902 160.098 300.5 162.758 302.318 166.227C304.152 169.697 305.068 173.848 305.068 178.682C305.068 183.53 304.152 187.697 302.318 191.182C300.5 194.667 297.886 197.341 294.477 199.205C291.083 201.068 287.023 202 282.295 202ZM275.636 193.568H281.886C284.795 193.568 287.242 193.053 289.227 192.023C291.227 190.977 292.727 189.364 293.727 187.182C294.742 184.985 295.25 182.152 295.25 178.682C295.25 175.242 294.742 172.432 293.727 170.25C292.727 168.068 291.235 166.462 289.25 165.432C287.265 164.402 284.818 163.886 281.909 163.886H275.636V193.568ZM322.199 155.455V202H312.358V155.455H322.199ZM361.159 170.5C360.841 169.394 360.394 168.417 359.818 167.568C359.242 166.705 358.538 165.977 357.705 165.386C356.886 164.78 355.947 164.318 354.886 164C353.841 163.682 352.682 163.523 351.409 163.523C349.03 163.523 346.939 164.114 345.136 165.295C343.348 166.477 341.955 168.197 340.955 170.455C339.955 172.697 339.455 175.439 339.455 178.682C339.455 181.924 339.947 184.682 340.932 186.955C341.917 189.227 343.311 190.962 345.114 192.159C346.917 193.341 349.045 193.932 351.5 193.932C353.727 193.932 355.629 193.538 357.205 192.75C358.795 191.947 360.008 190.818 360.841 189.364C361.689 187.909 362.114 186.189 362.114 184.205L364.114 184.5H352.114V177.091H371.591V182.955C371.591 187.045 370.727 190.561 369 193.5C367.273 196.424 364.894 198.682 361.864 200.273C358.833 201.848 355.364 202.636 351.455 202.636C347.091 202.636 343.258 201.674 339.955 199.75C336.652 197.811 334.076 195.061 332.227 191.5C330.394 187.924 329.477 183.682 329.477 178.773C329.477 175 330.023 171.636 331.114 168.682C332.22 165.712 333.765 163.197 335.75 161.136C337.735 159.076 340.045 157.508 342.682 156.432C345.318 155.356 348.174 154.818 351.25 154.818C353.886 154.818 356.341 155.205 358.614 155.977C360.886 156.735 362.902 157.811 364.659 159.205C366.432 160.598 367.879 162.258 369 164.182C370.121 166.091 370.841 168.197 371.159 170.5H361.159ZM388.824 155.455V202H378.983V155.455H388.824ZM395.148 163.568V155.455H433.375V163.568H419.125V202H409.398V163.568H395.148ZM442.006 202H431.46L447.528 155.455H460.21L476.256 202H465.71L454.051 166.091H453.688L442.006 202ZM441.347 183.705H466.256V191.386H441.347V183.705ZM481.858 202V155.455H491.699V193.886H511.653V202H481.858ZM43.1136 248.75H33.1591C32.9773 247.462 32.6061 246.318 32.0455 245.318C31.4849 244.303 30.7652 243.439 29.8864 242.727C29.0076 242.015 27.9924 241.47 26.8409 241.091C25.7045 240.712 24.4697 240.523 23.1364 240.523C20.7273 240.523 18.6288 241.121 16.8409 242.318C15.053 243.5 13.6667 245.227 12.6818 247.5C11.697 249.758 11.2045 252.5 11.2045 255.727C11.2045 259.045 11.697 261.833 12.6818 264.091C13.6818 266.348 15.0758 268.053 16.8636 269.205C18.6515 270.356 20.7197 270.932 23.0682 270.932C24.3864 270.932 25.6061 270.758 26.7273 270.409C27.8636 270.061 28.8712 269.553 29.75 268.886C30.6288 268.205 31.3561 267.379 31.9318 266.409C32.5227 265.439 32.9318 264.333 33.1591 263.091L43.1136 263.136C42.8561 265.273 42.2121 267.333 41.1818 269.318C40.1667 271.288 38.7955 273.053 37.0682 274.614C35.3561 276.159 33.3106 277.386 30.9318 278.295C28.5682 279.189 25.8939 279.636 22.9091 279.636C18.7576 279.636 15.0455 278.697 11.7727 276.818C8.51515 274.939 5.93939 272.22 4.04545 268.659C2.16667 265.098 1.22727 260.788 1.22727 255.727C1.22727 250.652 2.18182 246.333 4.09091 242.773C6 239.212 8.59091 236.5 11.8636 234.636C15.1364 232.758 18.8182 231.818 22.9091 231.818C25.6061 231.818 28.1061 232.197 30.4091 232.955C32.7273 233.712 34.7803 234.818 36.5682 236.273C38.3561 237.712 39.8106 239.477 40.9318 241.568C42.0682 243.659 42.7955 246.053 43.1136 248.75ZM92.9432 255.727C92.9432 260.803 91.9811 265.121 90.0568 268.682C88.1477 272.242 85.5417 274.962 82.2386 276.841C78.9508 278.705 75.2538 279.636 71.1477 279.636C67.0114 279.636 63.2992 278.697 60.0114 276.818C56.7235 274.939 54.125 272.22 52.2159 268.659C50.3068 265.098 49.3523 260.788 49.3523 255.727C49.3523 250.652 50.3068 246.333 52.2159 242.773C54.125 239.212 56.7235 236.5 60.0114 234.636C63.2992 232.758 67.0114 231.818 71.1477 231.818C75.2538 231.818 78.9508 232.758 82.2386 234.636C85.5417 236.5 88.1477 239.212 90.0568 242.773C91.9811 246.333 92.9432 250.652 92.9432 255.727ZM82.9659 255.727C82.9659 252.439 82.4735 249.667 81.4886 247.409C80.5189 245.152 79.1477 243.439 77.375 242.273C75.6023 241.106 73.5265 240.523 71.1477 240.523C68.7689 240.523 66.6932 241.106 64.9205 242.273C63.1477 243.439 61.7689 245.152 60.7841 247.409C59.8144 249.667 59.3295 252.439 59.3295 255.727C59.3295 259.015 59.8144 261.788 60.7841 264.045C61.7689 266.303 63.1477 268.015 64.9205 269.182C66.6932 270.348 68.7689 270.932 71.1477 270.932C73.5265 270.932 75.6023 270.348 77.375 269.182C79.1477 268.015 80.5189 266.303 81.4886 264.045C82.4735 261.788 82.9659 259.015 82.9659 255.727ZM139.165 232.455V279H130.665L110.415 249.705H110.074V279H100.233V232.455H108.869L128.96 261.727H129.369V232.455H139.165ZM187.358 245.841C187.176 244.008 186.396 242.583 185.017 241.568C183.638 240.553 181.767 240.045 179.403 240.045C177.797 240.045 176.441 240.273 175.335 240.727C174.229 241.167 173.381 241.78 172.79 242.568C172.214 243.356 171.926 244.25 171.926 245.25C171.896 246.083 172.07 246.811 172.449 247.432C172.843 248.053 173.381 248.591 174.062 249.045C174.744 249.485 175.532 249.871 176.426 250.205C177.32 250.523 178.275 250.795 179.29 251.023L183.472 252.023C185.502 252.477 187.366 253.083 189.062 253.841C190.759 254.598 192.229 255.53 193.472 256.636C194.714 257.742 195.676 259.045 196.358 260.545C197.055 262.045 197.411 263.765 197.426 265.705C197.411 268.553 196.684 271.023 195.244 273.114C193.82 275.189 191.759 276.803 189.062 277.955C186.381 279.091 183.146 279.659 179.358 279.659C175.6 279.659 172.328 279.083 169.54 277.932C166.767 276.78 164.6 275.076 163.04 272.818C161.494 270.545 160.684 267.735 160.608 264.386H170.131C170.237 265.947 170.684 267.25 171.472 268.295C172.275 269.326 173.343 270.106 174.676 270.636C176.025 271.152 177.547 271.409 179.244 271.409C180.911 271.409 182.358 271.167 183.585 270.682C184.828 270.197 185.79 269.523 186.472 268.659C187.153 267.795 187.494 266.803 187.494 265.682C187.494 264.636 187.184 263.758 186.562 263.045C185.956 262.333 185.063 261.727 183.881 261.227C182.714 260.727 181.282 260.273 179.585 259.864L174.517 258.591C170.593 257.636 167.494 256.144 165.222 254.114C162.949 252.083 161.82 249.348 161.835 245.909C161.82 243.091 162.57 240.629 164.085 238.523C165.616 236.417 167.714 234.773 170.381 233.591C173.047 232.409 176.078 231.818 179.472 231.818C182.926 231.818 185.941 232.409 188.517 233.591C191.108 234.773 193.123 236.417 194.562 238.523C196.002 240.629 196.744 243.068 196.79 245.841H187.358ZM232.795 232.455H242.636V262.682C242.636 266.076 241.826 269.045 240.205 271.591C238.598 274.136 236.348 276.121 233.455 277.545C230.561 278.955 227.189 279.659 223.341 279.659C219.477 279.659 216.098 278.955 213.205 277.545C210.311 276.121 208.061 274.136 206.455 271.591C204.848 269.045 204.045 266.076 204.045 262.682V232.455H213.886V261.841C213.886 263.614 214.273 265.189 215.045 266.568C215.833 267.947 216.939 269.03 218.364 269.818C219.788 270.606 221.447 271 223.341 271C225.25 271 226.909 270.606 228.318 269.818C229.742 269.03 230.841 267.947 231.614 266.568C232.402 265.189 232.795 263.614 232.795 261.841V232.455ZM265.545 232.455H277.682L290.5 263.727H291.045L303.864 232.455H316V279H306.455V248.705H306.068L294.023 278.773H287.523L275.477 248.591H275.091V279H265.545V232.455ZM324.108 279V232.455H355.472V240.568H333.949V251.659H353.858V259.773H333.949V270.886H355.562V279H324.108ZM381.932 232.455H391.659V264.909C391.659 267.909 390.985 270.515 389.636 272.727C388.303 274.939 386.447 276.644 384.068 277.841C381.689 279.038 378.924 279.636 375.773 279.636C372.97 279.636 370.424 279.144 368.136 278.159C365.864 277.159 364.061 275.644 362.727 273.614C361.394 271.568 360.735 269 360.75 265.909H370.545C370.576 267.136 370.826 268.189 371.295 269.068C371.78 269.932 372.439 270.598 373.273 271.068C374.121 271.523 375.121 271.75 376.273 271.75C377.485 271.75 378.508 271.492 379.341 270.977C380.189 270.447 380.833 269.674 381.273 268.659C381.712 267.644 381.932 266.394 381.932 264.909V232.455ZM442.568 255.727C442.568 260.803 441.606 265.121 439.682 268.682C437.773 272.242 435.167 274.962 431.864 276.841C428.576 278.705 424.879 279.636 420.773 279.636C416.636 279.636 412.924 278.697 409.636 276.818C406.348 274.939 403.75 272.22 401.841 268.659C399.932 265.098 398.977 260.788 398.977 255.727C398.977 250.652 399.932 246.333 401.841 242.773C403.75 239.212 406.348 236.5 409.636 234.636C412.924 232.758 416.636 231.818 420.773 231.818C424.879 231.818 428.576 232.758 431.864 234.636C435.167 236.5 437.773 239.212 439.682 242.773C441.606 246.333 442.568 250.652 442.568 255.727ZM432.591 255.727C432.591 252.439 432.098 249.667 431.114 247.409C430.144 245.152 428.773 243.439 427 242.273C425.227 241.106 423.152 240.523 420.773 240.523C418.394 240.523 416.318 241.106 414.545 242.273C412.773 243.439 411.394 245.152 410.409 247.409C409.439 249.667 408.955 252.439 408.955 255.727C408.955 259.015 409.439 261.788 410.409 264.045C411.394 266.303 412.773 268.015 414.545 269.182C416.318 270.348 418.394 270.932 420.773 270.932C423.152 270.932 425.227 270.348 427 269.182C428.773 268.015 430.144 266.303 431.114 264.045C432.098 261.788 432.591 259.015 432.591 255.727ZM449.858 279V232.455H468.222C471.737 232.455 474.737 233.083 477.222 234.341C479.722 235.583 481.623 237.348 482.926 239.636C484.244 241.909 484.903 244.583 484.903 247.659C484.903 250.75 484.237 253.409 482.903 255.636C481.57 257.848 479.638 259.545 477.108 260.727C474.593 261.909 471.547 262.5 467.972 262.5H455.676V254.591H466.381C468.259 254.591 469.82 254.333 471.062 253.818C472.305 253.303 473.229 252.53 473.835 251.5C474.456 250.47 474.767 249.189 474.767 247.659C474.767 246.114 474.456 244.811 473.835 243.75C473.229 242.689 472.297 241.886 471.04 241.341C469.797 240.78 468.229 240.5 466.335 240.5H459.699V279H449.858ZM474.994 257.818L486.562 279H475.699L464.381 257.818H474.994ZM11.8864 309.455V356H2.04545V309.455H11.8864ZM19.983 309.455H32.1193L44.9375 340.727H45.483L58.3011 309.455H70.4375V356H60.892V325.705H60.5057L48.4602 355.773H41.9602L29.9148 325.591H29.5284V356H19.983V309.455ZM86.5682 356H76.0227L92.0909 309.455H104.773L120.818 356H110.273L98.6136 320.091H98.25L86.5682 356ZM85.9091 337.705H110.818V345.386H85.9091V337.705ZM155.097 324.5C154.778 323.394 154.331 322.417 153.756 321.568C153.18 320.705 152.475 319.977 151.642 319.386C150.824 318.78 149.884 318.318 148.824 318C147.778 317.682 146.619 317.523 145.347 317.523C142.968 317.523 140.877 318.114 139.074 319.295C137.286 320.477 135.892 322.197 134.892 324.455C133.892 326.697 133.392 329.439 133.392 332.682C133.392 335.924 133.884 338.682 134.869 340.955C135.854 343.227 137.248 344.962 139.051 346.159C140.854 347.341 142.983 347.932 145.438 347.932C147.665 347.932 149.566 347.538 151.142 346.75C152.733 345.947 153.945 344.818 154.778 343.364C155.627 341.909 156.051 340.189 156.051 338.205L158.051 338.5H146.051V331.091H165.528V336.955C165.528 341.045 164.665 344.561 162.938 347.5C161.21 350.424 158.831 352.682 155.801 354.273C152.771 355.848 149.301 356.636 145.392 356.636C141.028 356.636 137.195 355.674 133.892 353.75C130.589 351.811 128.013 349.061 126.165 345.5C124.331 341.924 123.415 337.682 123.415 332.773C123.415 329 123.96 325.636 125.051 322.682C126.157 319.712 127.703 317.197 129.688 315.136C131.672 313.076 133.983 311.508 136.619 310.432C139.256 309.356 142.112 308.818 145.188 308.818C147.824 308.818 150.278 309.205 152.551 309.977C154.824 310.735 156.839 311.811 158.597 313.205C160.369 314.598 161.816 316.258 162.938 318.182C164.059 320.091 164.778 322.197 165.097 324.5H155.097ZM172.92 356V309.455H204.284V317.568H182.761V328.659H202.67V336.773H182.761V347.886H204.375V356H172.92ZM251.04 309.455V356H242.54L222.29 326.705H221.949V356H212.108V309.455H220.744L240.835 338.727H241.244V309.455H251.04Z" fill="url(#paint0_linear_1_13)"/>
<defs>
<linearGradient id="paint0_linear_1_13" x1="310" y1="-14" x2="310" y2="371" gradientUnits="userSpaceOnUse">
<stop stop-color="#FCF5B8"/>
<stop offset="1" stop-color="#9C1EBB"/>
</linearGradient>
</defs>
</svg>
