<svg width="572" height="345" viewBox="0 0 572 345" fill="none" xmlns="http://www.w3.org/2000/svg">
<ellipse cx="186" cy="47" rx="40" ry="47" fill="#D9D9D9"/>
<ellipse cx="370" cy="47" rx="40" ry="47" fill="#D9D9D9"/>
<ellipse cx="201" cy="47" rx="15" ry="13" fill="#1A1A1A"/>
<ellipse cx="355" cy="47" rx="15" ry="13" fill="#1A1A1A"/>
<rect x="120" y="204" width="335" height="105" fill="#4A3054"/>
<path d="M192.89 237.545V271H186.781L172.226 249.944H171.981V271H164.908V237.545H171.115L185.555 258.585H185.849V237.545H192.89ZM229.477 254.273C229.477 257.921 228.785 261.025 227.402 263.584C226.03 266.143 224.157 268.098 221.783 269.448C219.42 270.788 216.762 271.457 213.811 271.457C210.838 271.457 208.17 270.782 205.807 269.432C203.444 268.081 201.576 266.127 200.204 263.567C198.832 261.008 198.146 257.91 198.146 254.273C198.146 250.625 198.832 247.521 200.204 244.962C201.576 242.402 203.444 240.453 205.807 239.114C208.17 237.763 210.838 237.088 213.811 237.088C216.762 237.088 219.42 237.763 221.783 239.114C224.157 240.453 226.03 242.402 227.402 244.962C228.785 247.521 229.477 250.625 229.477 254.273ZM222.306 254.273C222.306 251.91 221.952 249.917 221.244 248.294C220.547 246.671 219.561 245.441 218.287 244.602C217.013 243.764 215.521 243.344 213.811 243.344C212.102 243.344 210.61 243.764 209.335 244.602C208.061 245.441 207.07 246.671 206.362 248.294C205.665 249.917 205.317 251.91 205.317 254.273C205.317 256.636 205.665 258.629 206.362 260.251C207.07 261.874 208.061 263.105 209.335 263.943C210.61 264.782 212.102 265.201 213.811 265.201C215.521 265.201 217.013 264.782 218.287 263.943C219.561 263.105 220.547 261.874 221.244 260.251C221.952 258.629 222.306 256.636 222.306 254.273ZM238.874 237.545L246.96 262.963H247.27L255.372 237.545H263.213L251.68 271H242.565L231.016 237.545H238.874ZM268.559 271H260.979L272.528 237.545H281.643L293.176 271H285.596L277.216 245.19H276.955L268.559 271ZM268.085 257.85H285.988V263.371H268.085V257.85ZM325.185 237.545V271H319.075L304.521 249.944H304.276V271H297.203V237.545H303.41L317.85 258.585H318.144V237.545H325.185ZM331.029 271V237.545H353.571V243.377H338.102V251.349H352.412V257.18H338.102V265.168H353.637V271H331.029ZM357.921 243.377V237.545H385.396V243.377H375.154V271H368.163V243.377H357.921ZM391.6 271H384.02L395.569 237.545H404.684L416.217 271H408.637L400.257 245.19H399.996L391.6 271ZM391.126 257.85H409.029V263.371H391.126V257.85Z" fill="#8E71A5"/>
<path d="M122.712 310.814C112.061 326.161 101.554 319.847 61.3708 321.183L6.75412 280.412C23.7227 258.089 58.6351 211.561 62.5357 204.025C67.4113 194.605 79.9166 193.673 86.5258 195.98C91.8131 197.825 90.0451 208.152 88.5002 213.085L83.7229 226.776C92.8908 223.267 113.651 214.766 123.348 208.829C135.47 201.408 135.799 200.464 146.657 204.253C157.515 208.042 153.682 222.062 147.105 228.77C143.549 232.396 135.421 235.819 130.31 237.672C140.308 235.659 153.389 242.364 158.214 248.533C163.34 255.088 153.601 261.751 145.18 264.638C138.913 266.786 130.375 266.339 126.124 265.756C130.645 266.481 139.087 268.475 142.709 271.719C147.55 276.056 152.062 281.338 143.552 290.548C135.043 299.759 121.935 287.241 116.346 291.117C110.757 294.992 133.363 295.466 122.712 310.814Z" fill="url(#paint0_linear_117_2)"/>
<path d="M448.759 300.814C459.41 316.161 469.917 309.847 510.1 311.183L564.717 270.412C547.748 248.089 512.836 201.561 508.935 194.025C504.06 184.605 491.554 183.673 484.945 185.98C479.658 187.825 481.426 198.152 482.971 203.085L487.748 216.776C478.58 213.267 457.82 204.766 448.123 198.829C436.001 191.408 435.672 190.464 424.814 194.253C413.956 198.042 417.789 212.062 424.366 218.77C427.922 222.396 436.05 225.819 441.161 227.672C431.163 225.659 418.082 232.364 413.257 238.533C408.131 245.088 417.87 251.751 426.291 254.638C432.558 256.786 441.096 256.339 445.347 255.756C440.826 256.481 432.384 258.475 428.762 261.719C423.921 266.056 419.409 271.338 427.919 280.548C436.428 289.759 449.536 277.241 455.125 281.117C460.714 284.992 438.108 285.466 448.759 300.814Z" fill="url(#paint1_linear_117_2)"/>
<defs>
<linearGradient id="paint0_linear_117_2" x1="97" y1="263.5" x2="63.5" y2="274" gradientUnits="userSpaceOnUse">
<stop stop-color="#201E1F"/>
<stop offset="1" stop-color="#201E1F" stop-opacity="0"/>
</linearGradient>
<linearGradient id="paint1_linear_117_2" x1="474.471" y1="253.5" x2="507.971" y2="264" gradientUnits="userSpaceOnUse">
<stop stop-color="#201E1F"/>
<stop offset="1" stop-color="#201E1F" stop-opacity="0"/>
</linearGradient>
</defs>
</svg>
