<svg xmlns="http://www.w3.org/2000/svg" viewBox="0 0 226.42 18.69"><defs><style>.cls-1{fill:#211d20;}.cls-2{fill:#666;}.cls-3,.cls-4{fill:#fff;}.cls-3{stroke:#fff;stroke-miterlimit:10;}</style></defs><g id="Capa_2" data-name="Capa 2"><g id="Capa_1-2" data-name="Capa 1"><path class="cls-1" d="M15.22.5V18.69H11.89L4,7.24H3.85V18.69H0V.5H3.38L5,2.8l6.28,9.14h.16V.5Z"/><path class="cls-1" d="M34.71,4.28A7.74,7.74,0,0,0,31.66,1.1,9.13,9.13,0,0,0,23,1.1a7.8,7.8,0,0,0-3,3.18A10.55,10.55,0,0,0,18.8,9.35a10.52,10.52,0,0,0,1.12,5.05,7.89,7.89,0,0,0,3,3.19,9.17,9.17,0,0,0,8.69,0,7.83,7.83,0,0,0,3.05-3.19,10.54,10.54,0,0,0,1.13-5.06A10.55,10.55,0,0,0,34.71,4.28Zm-3.37,8.56a4.37,4.37,0,0,1-1.61,2,4.64,4.64,0,0,1-4.87,0,4.45,4.45,0,0,1-1.62-2,8.38,8.38,0,0,1-.56-3.25,8.42,8.42,0,0,1,.56-3.25,4.55,4.55,0,0,1,1.62-2,4.7,4.7,0,0,1,4.87,0,4.47,4.47,0,0,1,1.61,2,8.22,8.22,0,0,1,.57,3.25A8.19,8.19,0,0,1,31.34,12.84Z"/><polygon class="cls-1" points="40.91 0.27 45.13 13.53 45.3 13.53 49.52 0.27 53.61 0.27 47.6 17.72 42.84 17.72 36.81 0.27 40.91 0.27"/><polygon class="cls-1" points="57.77 17.72 53.81 17.72 59.84 0.27 64.6 0.27 70.61 17.72 66.66 17.72 62.29 4.25 62.15 4.25 57.77 17.72"/><polygon class="cls-2" points="88.51 0.27 88.51 17.72 85.33 17.72 77.73 6.74 77.61 6.74 77.61 17.72 73.92 17.72 73.92 0.27 77.15 0.27 84.69 11.24 84.84 11.24 84.84 0.27 88.51 0.27"/><polygon class="cls-1" points="92.99 17.72 92.99 0.27 104.75 0.27 104.75 3.31 96.68 3.31 96.68 7.47 104.15 7.47 104.15 10.51 96.68 10.51 96.68 14.68 104.79 14.68 104.79 17.72 92.99 17.72"/><polygon class="cls-1" points="107.02 3.31 107.02 0.27 121.36 0.27 121.36 3.31 116.01 3.31 116.01 17.72 112.36 17.72 112.36 3.31 107.02 3.31"/><polygon class="cls-1" points="124.59 17.72 120.64 17.72 126.66 0.27 131.42 0.27 137.44 17.72 133.48 17.72 129.11 4.25 128.97 4.25 124.59 17.72"/><path class="cls-1" d="M150,4.84a3.19,3.19,0,0,0-1.29-2.32,4.6,4.6,0,0,0-2.87-.86,5.19,5.19,0,0,0-2.15.42,3.54,3.54,0,0,0-1.45,1.15,2.87,2.87,0,0,0-.52,1.67,2.4,2.4,0,0,0,.3,1.22,3.07,3.07,0,0,0,.8.89,6.46,6.46,0,0,0,1.13.63,9.78,9.78,0,0,0,1.25.44l1.84.53a13.29,13.29,0,0,1,1.67.59,6.84,6.84,0,0,1,1.53.9,4,4,0,0,1,1.11,1.32,3.77,3.77,0,0,1,.43,1.87,4.58,4.58,0,0,1-.72,2.52A5.12,5.12,0,0,1,149,17.58a8.42,8.42,0,0,1-6.34.06A5,5,0,0,1,140.56,16a4.61,4.61,0,0,1-.84-2.43h1.64a3,3,0,0,0,.68,1.75,3.73,3.73,0,0,0,1.55,1.09,6.33,6.33,0,0,0,4.45-.07,3.82,3.82,0,0,0,1.6-1.22,3,3,0,0,0,.59-1.84,2.4,2.4,0,0,0-.46-1.49,3.61,3.61,0,0,0-1.29-1,11.44,11.44,0,0,0-1.9-.73l-2.09-.61a7.6,7.6,0,0,1-3.18-1.7A3.63,3.63,0,0,1,140.17,5a4.2,4.2,0,0,1,.75-2.47A5.14,5.14,0,0,1,143,.83a6.81,6.81,0,0,1,2.9-.6,6.56,6.56,0,0,1,2.88.59,5,5,0,0,1,2,1.65,4.26,4.26,0,0,1,.79,2.37Z"/><polygon class="cls-1" points="154.55 1.91 154.55 0.47 167.21 0.47 167.21 1.91 161.67 1.91 161.67 17.93 160.08 17.93 160.08 1.91 154.55 1.91"/><path class="cls-1" d="M182.43.47H184V12a6.19,6.19,0,0,1-.83,3.19,6,6,0,0,1-2.33,2.2,7.75,7.75,0,0,1-6.9,0,6,6,0,0,1-2.33-2.21,6,6,0,0,1-.84-3.18V.47h1.6V11.92A4.86,4.86,0,0,0,173,14.4a4.41,4.41,0,0,0,1.75,1.7,5.89,5.89,0,0,0,5.3,0,4.41,4.41,0,0,0,1.75-1.7,5,5,0,0,0,.62-2.48Z"/><path class="cls-1" d="M189.51,18h4.14a8.92,8.92,0,0,0,4.54-1.07,6.67,6.67,0,0,0,2.74-3,11.24,11.24,0,0,0,.92-4.73,11.33,11.33,0,0,0-.91-4.69,6.51,6.51,0,0,0-2.63-3A8.17,8.17,0,0,0,194,.4h-4.51Z"/><path class="cls-3" d="M191.68,15.51h2.68a5.43,5.43,0,0,0,2.95-.75,4.65,4.65,0,0,0,1.78-2.16,8.63,8.63,0,0,0,.59-3.34A8.48,8.48,0,0,0,199.09,6a4.59,4.59,0,0,0-1.7-2.13,5,5,0,0,0-2.79-.74h-2.92Z"/><rect class="cls-1" x="205.88" y="0.47" width="1.59" height="17.45"/><path class="cls-1" d="M226.42,9.2a10.83,10.83,0,0,1-1,4.75,7.58,7.58,0,0,1-2.67,3.12,7.5,7.5,0,0,1-7.82,0A7.58,7.58,0,0,1,212.29,14a11,11,0,0,1-1-4.75,10.9,10.9,0,0,1,1-4.74A7.53,7.53,0,0,1,215,1.34a7.42,7.42,0,0,1,7.81,0,7.58,7.58,0,0,1,2.67,3.12A10.75,10.75,0,0,1,226.42,9.2Z"/><path class="cls-4" d="M224.87,9.2a9.4,9.4,0,0,0-.78-4A6,6,0,0,0,222,2.62a5.76,5.76,0,0,0-6.15,0,6.06,6.06,0,0,0-2.14,2.56,9.27,9.27,0,0,0-.79,4,9.25,9.25,0,0,0,.79,4,6,6,0,0,0,2.14,2.57,5.76,5.76,0,0,0,6.15,0,6,6,0,0,0,2.15-2.56A9.34,9.34,0,0,0,224.87,9.2Z"/></g></g></svg>